<svg width="71" height="70" viewBox="0 0 71 70" fill="none" xmlns="http://www.w3.org/2000/svg">
<rect width="70.8232" height="70" rx="35" fill="white"/>
<path fill-rule="evenodd" clip-rule="evenodd" d="M26.77 15.1225C26.0217 15.3894 25.439 15.966 25.1371 16.7382C25.0443 16.9758 25.0112 17.9216 24.9872 21.0263L24.9564 25.0096L24.4612 25.0115C23.5937 25.0148 22.9095 25.4822 22.7075 26.2095C22.6528 26.4065 22.6182 27.8284 22.6191 29.8418C22.6204 32.877 22.6338 33.1792 22.7817 33.4986C23.0551 34.0892 23.6147 34.4999 24.146 34.4999H24.358V35.8431V37.1863L24.5874 37.3667C24.7136 37.466 24.8916 37.5472 24.983 37.5472C25.0799 37.5472 25.8116 36.9118 26.7344 36.0265L28.3195 34.5058L31.6006 34.5028C33.6999 34.5009 34.97 34.4665 35.1268 34.4073C35.4753 34.2756 35.8464 33.904 36.034 33.4986C36.1616 33.2231 36.1957 32.9368 36.1972 32.1273L36.1991 31.1043H37.5317H38.8645L41.6244 33.7598C43.9908 36.0366 44.4216 36.4154 44.6451 36.4154C44.7897 36.4154 44.9833 36.3378 45.0799 36.2412C45.2458 36.0753 45.254 35.951 45.254 33.5857V31.1043H45.7319C46.7203 31.1043 47.5992 30.5661 48.035 29.6941L48.3014 29.161V23.0506V16.9402L48.034 16.4051C47.7232 15.783 47.3112 15.411 46.6656 15.1693C46.2168 15.0013 45.9644 14.997 36.6529 15.0007C28.846 15.0039 27.0402 15.0261 26.77 15.1225ZM46.4886 16.3715C46.6766 16.4884 46.8833 16.7245 46.9892 16.9431C47.1659 17.3084 47.1695 17.4281 47.1695 23.0506C47.1695 28.6242 47.1645 28.7955 46.9941 29.1395C46.7066 29.7198 46.4759 29.8307 45.4287 29.892C44.9256 29.9216 44.4507 29.9735 44.3734 30.0074C44.081 30.1357 44.0351 30.4696 44.0351 32.4679V34.4328L42.7268 33.1821C42.0072 32.4942 40.9436 31.4808 40.3632 30.9301L39.3078 29.9289L37.7535 29.9016L36.1991 29.8744V28.1357C36.1991 26.7634 36.1707 26.3291 36.0643 26.0746C35.8846 25.6443 35.6193 25.3687 35.1978 25.1742C34.8742 25.0248 34.543 25.0133 30.518 25.0115L26.1864 25.0096V21.1804C26.1864 17.8598 26.205 17.3046 26.3269 17.0001C26.4881 16.5973 26.8594 16.2986 27.3107 16.2087C27.4825 16.1745 31.7957 16.1523 36.8956 16.1594L46.1682 16.1723L46.4886 16.3715ZM36.3542 20.1291C29.6779 20.1738 29.1393 20.1884 28.9753 20.3289C28.7435 20.5274 28.7467 20.9307 28.9817 21.1434C29.1595 21.3043 29.3889 21.3084 36.6653 21.2786C44.1111 21.2482 44.1671 21.2467 44.3616 21.0676C44.764 20.6968 44.499 20.1379 43.9036 20.1018C43.7125 20.0902 40.3153 20.1025 36.3542 20.1291ZM39.4227 25.0746C38.6876 25.109 38.4628 25.2397 38.4628 25.6326C38.4628 25.7688 38.5441 25.9616 38.6436 26.061C38.82 26.2374 38.8883 26.2411 41.5245 26.2134L44.2248 26.185L44.3911 25.9794C44.611 25.7079 44.6017 25.4058 44.3669 25.1871C44.1852 25.0178 44.0819 25.0104 42.1249 25.0269C40.9967 25.0364 39.7807 25.0579 39.4227 25.0746ZM34.8757 26.333C34.9532 26.4106 34.9801 27.2882 34.9801 29.7435C34.9801 32.6977 34.9648 33.0665 34.836 33.2088C34.7011 33.3579 34.4744 33.368 31.2646 33.368H27.8373L26.7289 34.4187L25.6204 35.4692L25.571 34.5803C25.5108 33.4977 25.411 33.368 24.6382 33.368C23.7873 33.368 23.8356 33.5848 23.8356 29.7587C23.8356 27.2916 23.8625 26.4106 23.9401 26.333C24.091 26.182 34.7247 26.182 34.8757 26.333ZM26.8157 29.2959C26.5939 29.4028 26.4902 29.6965 26.5667 30.0011C26.6653 30.3938 26.9051 30.4233 29.4894 30.36C32.1694 30.2944 32.2811 30.2706 32.2811 29.7662C32.2811 29.1946 32.249 29.1881 29.488 29.1947C27.8859 29.1985 26.9438 29.2342 26.8157 29.2959ZM52.2969 35.2373C51.8112 35.4161 51.5491 35.6006 47.7354 38.4492C45.7721 39.9156 44.139 41.1158 44.1062 41.1162C44.0736 41.1166 44.0244 41.0463 43.997 40.9599C43.9029 40.6636 43.2233 40.0496 42.7368 39.8215L42.2502 39.5933L38.2887 39.5496L34.3271 39.5059L32.883 38.7872C31.0438 37.8718 30.345 37.6809 29.0609 37.7428C27.6828 37.8092 27.0368 38.0871 24.5843 39.6685C22.5319 40.9919 22.4472 41.0258 22.4438 40.5249C22.4405 40.0289 21.8241 39.3632 21.2166 39.1996C20.9873 39.1379 20.105 39.1131 18.7558 39.1306C16.6984 39.1574 16.6443 39.1627 16.274 39.3747C16.0407 39.5082 15.8068 39.7423 15.6645 39.9841L15.4336 40.3769L15.4083 46.4281C15.3905 50.6689 15.412 52.5964 15.4801 52.871C15.6112 53.3996 15.9457 53.8147 16.4036 54.0172C16.7525 54.1716 16.9679 54.183 19.0752 54.1593L21.3674 54.1335L21.7291 53.894C22.2255 53.5652 22.4499 53.0906 22.5077 52.2469C22.5334 51.8718 22.5667 51.565 22.5816 51.565C22.5965 51.565 23.5998 51.3701 24.8112 51.1321C29.0215 50.3044 31.2445 50.0168 32.2375 50.1711C32.5249 50.2158 33.1201 50.3492 33.5603 50.4676C35.1118 50.8847 35.9411 50.8554 38.1792 50.3041C40.9426 49.6234 43.4264 48.7139 44.2785 48.0706C45.2406 47.3442 47.416 45.4266 50.0862 42.9514C51.5707 41.5753 53.1379 40.1392 53.5689 39.7601C54.9578 38.5386 55.2404 38.2314 55.3498 37.8243C55.5817 36.9607 55.0217 35.8104 54.1466 35.3533C53.6183 35.0773 52.8606 35.0298 52.2969 35.2373ZM53.6051 36.3938C53.7687 36.4774 53.9743 36.6825 54.0622 36.8493C54.3693 37.4327 54.3236 37.5164 53.1118 38.5894C52.5013 39.1301 50.983 40.5187 49.738 41.6752C45.3421 45.7586 43.6569 47.1958 42.8162 47.5786C41.9716 47.963 39.6533 48.7163 38.0275 49.1345C36.7291 49.4684 36.4861 49.5047 35.5025 49.5111C34.5446 49.5173 34.3151 49.4884 33.5871 49.2697C33.1259 49.131 32.4518 49.0013 32.0634 48.9762C30.7774 48.8934 28.4889 49.1996 24.4478 49.9952C23.4676 50.1882 22.6351 50.3461 22.5977 50.3461C22.5602 50.3461 22.5298 48.5536 22.5302 46.3628L22.5307 42.3794L24.6347 41.0299C25.7919 40.2877 26.8968 39.5899 27.0899 39.4794C27.5975 39.1888 28.3232 38.9647 28.9725 38.8979C29.9288 38.7995 30.6209 39.0019 32.5423 39.9415L34.2401 40.7717L38.0956 40.7702C42.2845 40.7686 42.2869 40.7688 42.7459 41.2586C42.8785 41.4001 43.0216 41.6939 43.0755 41.9349C43.1608 42.3161 43.1498 42.4028 42.9717 42.7575C42.5822 43.5333 42.7189 43.5054 39.0584 43.5548L35.8352 43.5984L35.6688 43.8039C35.4544 44.069 35.4587 44.2593 35.6861 44.5483L35.8695 44.7815L39.147 44.7559C42.333 44.7309 42.4344 44.7249 42.7827 44.5385C43.5325 44.1374 44.0925 43.4533 44.2032 42.8032C44.2485 42.5377 44.5913 42.2596 48.1708 39.5848C50.3257 37.9746 52.2847 36.5638 52.5241 36.4499C53.0451 36.2022 53.2138 36.1934 53.6051 36.3938ZM21.1514 40.4775C21.3027 40.6144 21.3106 40.9201 21.3106 46.6426C21.3106 51.7052 21.291 52.6905 21.1871 52.8326C21.0706 52.9919 20.9417 53.0016 18.9598 53.0016C16.9779 53.0016 16.8491 52.9919 16.7326 52.8326C16.6287 52.6905 16.609 51.7073 16.609 46.6577C16.609 41.1913 16.622 40.6375 16.7531 40.4926C16.8849 40.347 17.0717 40.3334 18.9447 40.3334C20.7277 40.3334 21.0128 40.352 21.1514 40.4775Z" fill="black"/>
</svg>
