<svg width="200" height="75" viewBox="0 0 200 75" fill="none" xmlns="http://www.w3.org/2000/svg">
<rect y="2" width="200" height="72" fill="#141618"/>
<path fill-rule="evenodd" clip-rule="evenodd" d="M0 37.0542V74.1084H100H200V37.0542V0H100H0V37.0542ZM22.6957 24.3108C22.6957 28.058 22.6603 30.6509 22.6071 30.7905C22.5397 30.9679 11.9775 43.7346 10.719 45.1598L10.4736 45.4377L10.4708 31.7508L10.4678 18.0639H16.5818H22.6957V24.3108ZM49.8171 19.3377C49.1856 20.0383 44.2955 25.4678 38.9503 31.4034C30.422 40.8737 21.3683 50.9201 15.5332 57.3877C14.522 58.5086 13.5862 59.4831 13.4536 59.5534C13.2932 59.6384 12.7382 59.6971 11.7939 59.7288L10.3752 59.7765L10.3804 54.8767C10.3842 51.3256 10.416 49.8923 10.4962 49.6695C10.557 49.5004 12.8578 46.6671 15.6091 43.3731C32.9981 22.5543 36.439 18.459 36.6987 18.2723L36.989 18.0639H43.9772H50.9655L49.8171 19.3377ZM70.4711 24.7751C72.6277 28.4407 74.3721 31.4919 74.3478 31.5555C74.2371 31.8441 67.9768 41.0787 67.9198 41.0376C67.8547 40.9908 53.229 18.5264 53.0675 18.2254C52.9847 18.0709 53.3184 18.0639 59.7652 18.0864L66.5501 18.1102L70.4711 24.7751ZM99.5677 18.1495C99.5507 18.1966 95.7017 24.1345 91.0144 31.3449L82.4919 44.4548L76.2523 44.4598C71.2964 44.464 70.022 44.4412 70.0579 44.3492C70.0828 44.2856 71.5016 42.0658 73.2108 39.4164C75.4147 36.0003 77.5254 32.5518 80.4681 27.5591C82.7503 23.6869 84.9436 19.9664 85.3422 19.2913L86.067 18.0639H92.8328C96.9308 18.0639 99.5864 18.0976 99.5677 18.1495ZM116.628 31.3108V44.5577H110.375H104.122V31.3108V18.0639H110.375H116.628V31.3108ZM154.563 38.9301C154.526 50.4065 154.469 59.8259 154.435 59.8623C154.402 59.8987 151.634 59.9023 148.285 59.8704L142.195 59.8124V38.9381V18.0639H148.412H154.629L154.563 38.9301ZM186.197 36.38C186.197 54.4019 186.194 54.6932 186.021 54.5134C185.923 54.4129 183.151 50.7516 179.86 46.377L173.877 38.4233V28.2436V18.0639H180.037H186.197V36.38ZM171.916 40.8211C179.618 51.2741 185.919 59.851 185.919 59.8809C185.919 59.9107 183.071 59.9352 179.59 59.9352H173.261L173.072 59.7267C172.829 59.4583 158.021 39.214 157.843 38.9069C157.727 38.708 157.713 37.4721 157.739 30.1636C157.756 25.4822 157.803 21.6887 157.842 21.7338C157.881 21.7788 164.215 30.3681 171.916 40.8211ZM44.6248 48.4549C50.6324 57.7031 51.8439 59.6209 51.7114 59.6735C51.6235 59.7084 48.4044 59.7391 44.5577 59.742C39.1851 59.746 37.51 59.7206 37.3321 59.6327C37.2022 59.5686 36.7749 59.0209 36.3594 58.3863C34.7812 55.9755 28.9752 46.7718 28.9345 46.6164C28.9044 46.501 29.6229 45.6438 31.3609 43.7218C32.7189 42.22 34.5868 40.1485 35.5116 39.1186C36.4365 38.0886 37.2348 37.258 37.2858 37.2728C37.3367 37.2876 40.6393 42.3196 44.6248 48.4549ZM82.5382 53.6359V59.8425H76.2853H70.0324V53.6359V47.4294H76.2853H82.5382V53.6359ZM132.446 47.7999H137.286V53.8212V59.8425H120.704H104.122V53.7596V47.6766L115.864 47.7382C122.322 47.7721 129.784 47.7998 132.446 47.7999ZM22.6647 59.6265C22.6462 59.6449 21.3732 59.649 19.8357 59.6355L17.0402 59.6109L19.8447 56.5007L22.6494 53.3906L22.6737 56.4918C22.6872 58.1974 22.6831 59.6081 22.6647 59.6265Z" fill="white"/>
</svg>
