<svg width="48" height="48" viewBox="0 0 48 48" fill="none" xmlns="http://www.w3.org/2000/svg">
<g filter="url(#filter0_d_160_207)">
<path fill-rule="evenodd" clip-rule="evenodd" d="M21.6551 4.11394C15.7548 4.83082 10.5374 8.06595 7.25622 13.0422C2.91459 19.6267 2.91459 28.3512 7.25622 34.9358C11.0087 40.6268 17.2165 43.9806 23.9979 43.9806C29.3565 43.9806 34.3559 41.9119 38.1384 38.1295C42.9396 33.3282 44.9698 26.464 43.5615 19.7938C41.9426 12.1266 35.7637 5.98065 28.0805 4.39538C26.1923 4.00578 23.5114 3.88833 21.6551 4.11394ZM29.9366 15.305C30.5793 15.5314 30.969 15.7477 31.4695 16.1553L31.9187 16.5212L32.5727 16.3521C32.9324 16.2592 33.5575 16.0264 33.9617 15.835C34.3658 15.6435 34.6965 15.5207 34.6965 15.5622C34.6965 15.9513 33.5883 17.4009 33.0458 17.7214C32.9229 17.7939 32.8223 17.8767 32.8223 17.9052C32.8223 17.9931 33.9974 17.7441 34.6743 17.5128C35.1929 17.3355 35.3026 17.3177 35.247 17.4199C35.0857 17.7164 34.1274 18.7507 33.6511 19.1424L33.1347 19.5672V20.0518C33.1347 22.6163 32.2768 25.38 30.7827 27.6286C30.0699 28.7015 28.4983 30.298 27.473 30.991C25.9049 32.0508 24.1603 32.7367 22.2018 33.0636C21.3076 33.2129 18.7323 33.1886 17.8492 33.0226C16.4127 32.7527 14.9252 32.2252 13.7678 31.5756L13.2602 31.2906L14.3535 31.2395C15.61 31.1808 16.6102 30.9825 17.5464 30.6067C18.2821 30.3113 19.2218 29.7899 19.6247 29.4535L19.898 29.2254L19.5825 29.2233C18.1155 29.2135 16.419 28.0266 15.768 26.5545L15.5831 26.1365H16.4521C17.6232 26.1365 17.7881 26.0629 17.1201 25.8381C15.6482 25.3428 14.5008 24.1138 14.1209 22.6255C14.0556 22.3695 14.0021 22.0086 14.0021 21.8235V21.4868L14.3128 21.6453C14.684 21.8348 15.5859 22.0545 15.8559 22.0213C16.0357 21.9992 16.024 21.9794 15.6813 21.7243C15.4793 21.574 15.1424 21.2226 14.9325 20.9434C13.967 19.659 13.751 17.9795 14.3568 16.4665L14.5649 15.9466L15.44 16.8246C17.5199 18.9113 20.0413 20.1828 22.9069 20.59C24.165 20.7688 24.0441 20.8477 24.0111 19.8696C23.9564 18.2522 24.5633 16.9195 25.755 16.0404C26.3708 15.5861 26.708 15.4195 27.3829 15.2362C28.0942 15.0431 29.2846 15.0751 29.9366 15.305Z" fill="url(#paint0_linear_160_207)"/>
</g>
<defs>
<filter id="filter0_d_160_207" x="0" y="0" width="48" height="47.9807" filterUnits="userSpaceOnUse" color-interpolation-filters="sRGB">
<feFlood flood-opacity="0" result="BackgroundImageFix"/>
<feColorMatrix in="SourceAlpha" type="matrix" values="0 0 0 0 0 0 0 0 0 0 0 0 0 0 0 0 0 0 127 0" result="hardAlpha"/>
<feOffset/>
<feGaussianBlur stdDeviation="2"/>
<feComposite in2="hardAlpha" operator="out"/>
<feColorMatrix type="matrix" values="0 0 0 0 0.294118 0 0 0 0 0.145098 0 0 0 0 0.454902 0 0 0 0.21 0"/>
<feBlend mode="normal" in2="BackgroundImageFix" result="effect1_dropShadow_160_207"/>
<feBlend mode="normal" in="SourceGraphic" in2="effect1_dropShadow_160_207" result="shape"/>
</filter>
<linearGradient id="paint0_linear_160_207" x1="24" y1="4" x2="24" y2="43.9806" gradientUnits="userSpaceOnUse">
<stop stop-color="#CD96E5"/>
<stop offset="1" stop-color="#9D76FB"/>
</linearGradient>
</defs>
</svg>
