<svg width="48" height="48" viewBox="0 0 48 48" fill="none" xmlns="http://www.w3.org/2000/svg">
<g filter="url(#filter0_d_160_208)">
<path fill-rule="evenodd" clip-rule="evenodd" d="M21.6577 4.1049C12.4188 5.22748 5.1989 12.4703 4.11936 21.6991C3.88406 23.7107 4.00116 26.1485 4.43082 28.1836C6.04275 35.8179 12.1704 41.9455 19.8046 43.5574C25.043 44.6634 30.5441 43.6409 34.9362 40.7449C40.6472 36.9793 44 30.7802 44 23.9869C44 13.8032 36.416 5.28958 26.2891 4.10497C25.0929 3.96506 22.8089 3.96498 21.6577 4.1049ZM28.4931 12.7182C28.5853 13.5424 28.839 14.41 29.2069 15.1594C30.0168 16.8091 31.5882 17.8752 33.5346 18.0954L34.0007 18.1481V20.1301C34.0007 21.9058 33.9875 22.1121 33.8739 22.1121C33.5161 22.1121 32.0327 21.8458 31.4375 21.6748C30.6055 21.4358 29.4892 20.9043 28.919 20.4758L28.4932 20.1558L28.4481 24.8251C28.4006 29.7439 28.397 29.7958 28.0157 30.977C27.8368 31.5314 27.3316 32.5312 27.0067 32.9738C26.855 33.1803 26.4477 33.6158 26.1015 33.9415C24.6797 35.279 22.5585 35.9033 20.3602 35.6314C17.762 35.3099 15.5358 33.6499 14.5602 31.3064C13.8714 29.652 13.8322 27.5198 14.4572 25.7053C15.1517 23.6888 16.6842 22.054 18.5643 21.324C19.5566 20.9387 20.8543 20.7811 21.9507 20.9128L22.3608 20.9621V23.0805V25.199L21.7554 25.172C20.6095 25.1211 19.6182 25.4815 18.9553 26.1902C17.5814 27.659 17.885 30.3001 19.5306 31.1958C20.9415 31.9637 22.6516 31.7081 23.6875 30.5747C24.1531 30.0652 24.3608 29.6413 24.4657 28.9866C24.5182 28.6587 24.5472 25.6088 24.5475 20.3739L24.5482 12.269H26.4955H28.4429L28.4931 12.7182Z" fill="url(#paint0_linear_160_208)"/>
</g>
<defs>
<filter id="filter0_d_160_208" x="0" y="0" width="48" height="47.9929" filterUnits="userSpaceOnUse" color-interpolation-filters="sRGB">
<feFlood flood-opacity="0" result="BackgroundImageFix"/>
<feColorMatrix in="SourceAlpha" type="matrix" values="0 0 0 0 0 0 0 0 0 0 0 0 0 0 0 0 0 0 127 0" result="hardAlpha"/>
<feOffset/>
<feGaussianBlur stdDeviation="2"/>
<feComposite in2="hardAlpha" operator="out"/>
<feColorMatrix type="matrix" values="0 0 0 0 0.294118 0 0 0 0 0.145098 0 0 0 0 0.454902 0 0 0 0.21 0"/>
<feBlend mode="normal" in2="BackgroundImageFix" result="effect1_dropShadow_160_208"/>
<feBlend mode="normal" in="SourceGraphic" in2="effect1_dropShadow_160_208" result="shape"/>
</filter>
<linearGradient id="paint0_linear_160_208" x1="24" y1="4" x2="24" y2="43.993" gradientUnits="userSpaceOnUse">
<stop stop-color="#CD96E5"/>
<stop offset="1" stop-color="#9D76FB"/>
</linearGradient>
</defs>
</svg>
