<svg width="48" height="48" viewBox="0 0 48 48" fill="none" xmlns="http://www.w3.org/2000/svg">
<g filter="url(#filter0_d_160_209)">
<path fill-rule="evenodd" clip-rule="evenodd" d="M21.6551 4.11394C15.7548 4.83082 10.5374 8.06595 7.25622 13.0422C2.91459 19.6267 2.91459 28.3512 7.25622 34.9358C11.0087 40.6268 17.2165 43.9806 23.9979 43.9806C29.3565 43.9806 34.3559 41.9119 38.1384 38.1295C42.9396 33.3282 44.9698 26.464 43.5615 19.7938C41.9426 12.1266 35.7637 5.98065 28.0805 4.39538C26.1923 4.00578 23.5114 3.88833 21.6551 4.11394ZM16.9494 12.7574C17.5432 12.9796 18.0636 13.5052 18.2935 14.1149C18.4368 14.4948 18.4625 14.692 18.4356 15.2036C18.3859 16.1468 18.0064 16.7609 17.2112 17.1847C16.0906 17.782 14.5574 17.5922 13.7448 16.7554C13.2561 16.2524 13.1074 15.8549 13.1056 15.0474C13.1042 14.462 13.1352 14.2812 13.2908 13.9652C13.8961 12.7356 15.4871 12.2104 16.9494 12.7574ZM31.6487 19.4271C33.0742 19.7555 34.3009 20.7535 34.9524 22.1148C35.6661 23.6062 35.7083 24.0227 35.7102 29.5921L35.7117 34.2191H33.2909H30.87V29.8888C30.87 27.0047 30.841 25.4203 30.7829 25.1447C30.4866 23.7357 29.5464 22.9747 28.2195 23.0697C27.9364 23.0899 27.5389 23.1799 27.3362 23.2695C26.8452 23.4867 26.2666 24.0792 25.9845 24.6538L25.755 25.1213L25.7319 29.6702L25.7089 34.2191H23.3111H20.9132V26.9175V19.616L23.3123 19.6159L25.7114 19.6158L25.7332 20.6401L25.755 21.6643L26.0015 21.3207C26.7983 20.2103 27.9227 19.518 29.2715 19.3074C29.8529 19.2167 30.9825 19.2735 31.6487 19.4271ZM18.141 26.9174V34.2191H15.7591H13.3773V26.9174V19.6158H15.7591H18.141V26.9174Z" fill="url(#paint0_linear_160_209)"/>
</g>
<defs>
<filter id="filter0_d_160_209" x="0" y="0" width="48" height="47.9807" filterUnits="userSpaceOnUse" color-interpolation-filters="sRGB">
<feFlood flood-opacity="0" result="BackgroundImageFix"/>
<feColorMatrix in="SourceAlpha" type="matrix" values="0 0 0 0 0 0 0 0 0 0 0 0 0 0 0 0 0 0 127 0" result="hardAlpha"/>
<feOffset/>
<feGaussianBlur stdDeviation="2"/>
<feComposite in2="hardAlpha" operator="out"/>
<feColorMatrix type="matrix" values="0 0 0 0 0.294118 0 0 0 0 0.145098 0 0 0 0 0.454902 0 0 0 0.21 0"/>
<feBlend mode="normal" in2="BackgroundImageFix" result="effect1_dropShadow_160_209"/>
<feBlend mode="normal" in="SourceGraphic" in2="effect1_dropShadow_160_209" result="shape"/>
</filter>
<linearGradient id="paint0_linear_160_209" x1="24" y1="4" x2="24" y2="43.9806" gradientUnits="userSpaceOnUse">
<stop stop-color="#CD96E5"/>
<stop offset="1" stop-color="#9D76FB"/>
</linearGradient>
</defs>
</svg>
