<svg width="48" height="48" viewBox="0 0 48 48" fill="none" xmlns="http://www.w3.org/2000/svg">
<g filter="url(#filter0_d_33_187)">
<path fill-rule="evenodd" clip-rule="evenodd" d="M21.6551 4.11394C15.7548 4.83082 10.5374 8.06595 7.25622 13.0422C2.91459 19.6267 2.91459 28.3512 7.25622 34.9358C11.0087 40.6268 17.2165 43.9806 23.9979 43.9806C29.3565 43.9806 34.3559 41.9119 38.1384 38.1295C42.9396 33.3282 44.9698 26.464 43.5615 19.7938C41.9426 12.1266 35.7637 5.98065 28.0805 4.39538C26.1923 4.00578 23.5114 3.88833 21.6551 4.11394ZM29.8548 15.4036C32.9659 15.5591 34.0853 15.7652 34.8137 16.3165C35.3318 16.7086 35.8107 17.4331 35.9694 18.065C36.3437 19.5554 36.5464 22.9724 36.4199 25.6626C36.2459 29.3655 36.0097 30.4603 35.1983 31.3279C34.2756 32.3142 33.25 32.4878 27.3064 32.6636C21.8279 32.8257 15.5035 32.5625 14.0784 32.1132C13.2419 31.8494 12.5674 31.2449 12.2023 30.4316C11.4651 28.7894 11.3094 21.629 11.9416 18.4444C12.0987 17.6533 12.3884 17.0816 12.8832 16.5861C13.615 15.8534 14.3638 15.6408 16.8089 15.4714C20.0262 15.2487 26.1225 15.2169 29.8548 15.4036ZM21.4989 23.989C21.4989 26.0557 21.5253 27.733 21.5575 27.7162C22.078 27.4456 27.9806 24.0204 27.9806 23.989C27.9806 23.9575 22.078 20.5324 21.5575 20.2618C21.5253 20.245 21.4989 21.9223 21.4989 23.989Z" fill="white"/>
</g>
<defs>
<filter id="filter0_d_33_187" x="0" y="0" width="48" height="47.9807" filterUnits="userSpaceOnUse" color-interpolation-filters="sRGB">
<feFlood flood-opacity="0" result="BackgroundImageFix"/>
<feColorMatrix in="SourceAlpha" type="matrix" values="0 0 0 0 0 0 0 0 0 0 0 0 0 0 0 0 0 0 127 0" result="hardAlpha"/>
<feOffset/>
<feGaussianBlur stdDeviation="2"/>
<feComposite in2="hardAlpha" operator="out"/>
<feColorMatrix type="matrix" values="0 0 0 0 0.294118 0 0 0 0 0.145098 0 0 0 0 0.454902 0 0 0 0.21 0"/>
<feBlend mode="normal" in2="BackgroundImageFix" result="effect1_dropShadow_33_187"/>
<feBlend mode="normal" in="SourceGraphic" in2="effect1_dropShadow_33_187" result="shape"/>
</filter>
</defs>
</svg>
