<svg width="160" height="60" viewBox="0 0 160 60" fill="none" xmlns="http://www.w3.org/2000/svg">
<rect y="1.6001" width="160" height="57.6" fill="#11042A"/>
<path fill-rule="evenodd" clip-rule="evenodd" d="M0 29.6434V59.2867H80H160V29.6434V0H80H0V29.6434ZM18.1566 19.4486C18.1566 22.4464 18.1282 24.5207 18.0857 24.6324C18.0318 24.7744 9.58199 34.9877 8.57523 36.1278L8.37892 36.3502L8.37662 25.4006L8.37425 14.4511H13.2654H18.1566V19.4486ZM39.8537 15.4701C39.3485 16.0306 35.4364 20.3742 31.1603 25.1227C24.3376 32.699 17.0947 40.736 12.4266 45.9101C11.6176 46.8069 10.869 47.5865 10.7629 47.6427C10.6346 47.7108 10.1906 47.7577 9.43511 47.783L8.30014 47.8212L8.30429 43.9014C8.30733 41.0605 8.33282 39.9138 8.39692 39.7356C8.44561 39.6003 10.2862 37.3337 12.4873 34.6985C26.3984 18.0435 29.1512 14.7672 29.359 14.6179L29.5912 14.4511H35.1818H40.7724L39.8537 15.4701ZM56.3769 19.8201C58.1022 22.7525 59.4977 25.1935 59.4782 25.2444C59.3896 25.4753 54.3815 32.8629 54.3358 32.8301C54.2838 32.7927 42.5832 14.8212 42.454 14.5803C42.3878 14.4567 42.6547 14.4511 47.8121 14.4691L53.2401 14.4882L56.3769 19.8201ZM79.6541 14.5196C79.6406 14.5573 76.5614 19.3076 72.8115 25.0759L65.9935 35.5638L61.0018 35.5679C57.0371 35.5712 56.0176 35.553 56.0463 35.4794C56.0663 35.4285 57.2013 33.6526 58.5687 31.5331C60.3318 28.8002 62.0203 26.0415 64.3745 22.0472C66.2002 18.9495 67.9549 15.9731 68.2738 15.4331L68.8536 14.4511H74.2662C77.5446 14.4511 79.6691 14.4781 79.6541 14.5196ZM93.3025 25.0486V35.6461H88.3001H83.2978V25.0486V14.4511H88.3001H93.3025V25.0486ZM123.65 31.144C123.621 40.3252 123.575 47.8608 123.548 47.8899C123.521 47.9189 121.307 47.9218 118.628 47.8963L113.756 47.8499V31.1505V14.4511H118.73H123.703L123.65 31.144ZM148.958 29.104C148.958 43.5216 148.956 43.7546 148.817 43.6107C148.739 43.5303 146.521 40.6012 143.888 37.1016L139.101 30.7387V22.5949V14.4511H144.03H148.958V29.104ZM137.533 32.6569C143.694 41.0193 148.736 47.8808 148.736 47.9047C148.736 47.9286 146.457 47.9481 143.672 47.9481H138.609L138.458 47.7814C138.263 47.5666 126.417 31.3712 126.274 31.1255C126.182 30.9664 126.17 29.9777 126.192 24.1309C126.205 20.3857 126.242 17.351 126.274 17.387C126.305 17.423 131.372 24.2945 137.533 32.6569ZM35.6999 38.7639C40.5059 46.1625 41.4751 47.6967 41.3692 47.7388C41.2988 47.7667 38.7235 47.7913 35.6461 47.7936C31.3481 47.7968 30.008 47.7765 29.8657 47.7062C29.7618 47.6549 29.4199 47.2168 29.0875 46.709C27.825 44.7804 23.1801 37.4175 23.1476 37.2931C23.1235 37.2008 23.6983 36.5151 25.0887 34.9775C26.1752 33.776 27.6694 32.1188 28.4093 31.2949C29.1492 30.4708 29.7879 29.8064 29.8286 29.8182C29.8694 29.8301 32.5114 33.8557 35.6999 38.7639ZM66.0306 42.9088V47.874H61.0283H56.0259V42.9088V37.9435H61.0283H66.0306V42.9088ZM105.956 38.2399H109.829V43.057V47.874H96.5632H83.2978V43.0077V38.1413L92.6911 38.1906C97.8574 38.2177 103.827 38.2399 105.956 38.2399ZM18.1317 47.7012C18.117 47.7159 17.0986 47.7192 15.8685 47.7084L13.6322 47.6887L15.8758 45.2006L18.1195 42.7124L18.139 45.1934C18.1497 46.5579 18.1465 47.6865 18.1317 47.7012Z" fill="white"/>
</svg>
