<svg width="72" height="70" viewBox="0 0 72 70" fill="none" xmlns="http://www.w3.org/2000/svg">
<rect x="0.597656" width="70.8232" height="70" rx="35" fill="white"/>
<path fill-rule="evenodd" clip-rule="evenodd" d="M33.0236 55C32.7599 54.9998 32.5069 54.895 32.3204 54.7084C32.1339 54.5219 32.029 54.269 32.0289 54.0052V52.2439H21.9948C21.7309 52.2436 21.478 52.1386 21.2915 51.9519C21.105 51.7653 21.0002 51.5123 21 51.2485C21.0003 50.9847 21.1051 50.7318 21.2916 50.5453C21.4781 50.3588 21.731 50.2539 21.9948 50.2537H32.0292V48.4905C32.0294 48.2267 32.1343 47.9738 32.3208 47.7873C32.5073 47.6008 32.7602 47.4959 33.024 47.4957H34.7866V43.9714H25.6721C24.1096 43.9714 22.839 42.7002 22.839 41.138V22.9351L30.7744 15H45.8902C47.4525 15 48.7234 16.2709 48.7234 17.8331V41.1386C48.7234 42.7005 47.4525 43.9711 45.8902 43.9711H36.7761V47.4954H38.5381C38.8019 47.4956 39.0548 47.6005 39.2414 47.787C39.428 47.9735 39.5331 48.2263 39.5335 48.4901V50.2534H49.5669C49.8307 50.2536 50.0836 50.3585 50.2702 50.545C50.4568 50.7315 50.5617 50.9844 50.562 51.2482C50.5619 51.5121 50.457 51.7651 50.2704 51.9517C50.0839 52.1384 49.8308 52.2433 49.5669 52.2436H39.5335V54.0049C39.5332 54.2687 39.4282 54.5217 39.2415 54.7082C39.0549 54.8947 38.8019 54.9995 38.5381 54.9997H33.0236V55ZM37.5433 53.0104V49.4859H34.0191V53.0104H37.5433ZM24.8286 41.1383C24.8288 41.3619 24.9177 41.5762 25.0758 41.7343C25.2339 41.8924 25.4482 41.9813 25.6718 41.9816H45.8909C46.1144 41.9812 46.3286 41.8923 46.4867 41.7342C46.6447 41.5761 46.7336 41.3618 46.7338 41.1383V17.8338C46.7336 17.6102 46.6446 17.3959 46.4865 17.2378C46.3285 17.0797 46.1141 16.9908 45.8906 16.9905H32.1813V23.3466C32.181 23.6105 32.0761 23.8634 31.8895 24.05C31.703 24.2366 31.4501 24.3416 31.1862 24.342H24.8289L24.8286 41.1383ZM30.1911 22.3515V18.3971L26.2358 22.3515H30.1911ZM35.0294 38.2804C34.7656 38.2801 34.5128 38.1752 34.3262 37.9887C34.1397 37.8023 34.0347 37.5494 34.0343 37.2857V28.0952C34.0343 27.5467 34.4813 27.1004 35.0297 27.1004C35.2934 27.1008 35.5462 27.2057 35.7327 27.3922C35.9191 27.5787 36.0241 27.8314 36.0245 28.0952V37.286C36.0242 37.5498 35.9192 37.8026 35.7326 37.9891C35.5461 38.1756 35.2932 38.2805 35.0294 38.2808V38.2804ZM39.0523 38.1333C38.7885 38.1331 38.5356 38.0282 38.349 37.8417C38.1625 37.6552 38.0575 37.4024 38.0572 37.1386V29.7864C38.0573 29.5225 38.1623 29.2694 38.3489 29.0827C38.5355 28.8961 38.7886 28.7912 39.0526 28.791C39.6074 28.7992 40.0471 29.2602 40.0471 29.8194V37.1059C40.0471 37.6648 39.6074 38.1261 39.0669 38.1337H39.0523V38.1333ZM43.1332 38.1286C42.8694 38.1282 42.6166 38.0232 42.4301 37.8368C42.2436 37.6503 42.1386 37.3975 42.1381 37.1338V22.4292C42.1383 22.1653 42.2433 21.9122 42.4299 21.7256C42.6165 21.539 42.8696 21.434 43.1335 21.4338C43.3973 21.4343 43.6501 21.5393 43.8366 21.7259C44.023 21.9125 44.1279 22.1654 44.1283 22.4292V37.1341C44.1279 37.3979 44.023 37.6508 43.8364 37.8373C43.6499 38.0238 43.397 38.1287 43.1332 38.1289V38.1286Z" fill="black"/>
</svg>
