<svg width="71" height="70" viewBox="0 0 71 70" fill="none" xmlns="http://www.w3.org/2000/svg">
<rect width="70.8232" height="70" rx="35" fill="white"/>
<path fill-rule="evenodd" clip-rule="evenodd" d="M29.0785 15.0722C23.345 15.4803 18.653 16.9486 16.6465 18.9627C16.074 19.5374 15.7555 20.0321 15.5429 20.6764C15.4162 21.0604 15.4011 21.4122 15.4019 23.9665C15.4027 26.9409 15.4226 27.1568 15.7558 27.8152C15.8288 27.9592 15.9722 28.1891 16.0746 28.3259C16.306 28.6352 16.3062 28.7059 16.0769 29.0077C15.9759 29.1407 15.8297 29.3726 15.7521 29.5231C15.4021 30.2022 15.4029 30.1825 15.402 38.0887C15.4011 45.1354 15.4098 45.6256 15.5429 46.0291C16.0506 47.5681 17.591 48.8431 20.1229 49.8202C23.627 51.1724 27.9335 51.7943 33.1035 51.6947C35.3096 51.6522 36.8091 51.5408 38.3989 51.301L39.0831 51.1978L39.4081 51.6192C39.8496 52.1914 40.7771 53.046 41.4223 53.4748C43.0781 54.5756 44.7835 55.0545 46.781 54.9798C49.1321 54.8917 51.0804 54.0358 52.7657 52.3506C54.4513 50.665 55.3073 48.716 55.3944 46.3659C55.4697 44.3331 54.9765 42.5991 53.8434 40.913C53.4238 40.2889 52.1577 39.0217 51.5363 38.6041C50.9552 38.2136 49.7974 37.6266 49.3406 37.4908L49.0084 37.3921L49.0102 35.9782L49.0118 34.5642L49.4499 34.2516C50.0838 33.7993 50.6957 33.088 51.0261 32.4195L51.3141 31.8367V28.6673V25.498L51.0732 24.99C50.7617 24.3333 50.181 23.6405 49.532 23.1517L49.0155 22.7625L49.012 21.9344C49.0064 20.6381 48.6959 19.8992 47.7629 18.9627C45.727 16.919 41.0816 15.4814 35.1747 15.067C33.8691 14.9754 30.3972 14.9783 29.0785 15.0722ZM34.1787 17.4084C35.7724 17.4858 37.3494 17.642 38.5745 17.8438C43.1121 18.5911 46.6069 20.2381 46.6069 21.6292C46.6069 22.2802 45.8779 22.9731 44.4363 23.6927C39.2547 26.279 28.477 26.651 21.888 24.4709C20.0362 23.8583 18.5742 23.0257 18.0378 22.2786C17.4145 21.4104 18.0433 20.529 19.9732 19.5657C23.1606 17.9748 28.6561 17.1402 34.1787 17.4084ZM48.9684 31.0655C48.834 32.0049 47.3212 33.0311 44.8661 33.8478C39.1554 35.7478 30.0181 35.7508 24.2421 33.8544C22.4074 33.2521 20.8866 32.3874 20.3825 31.66C20.0212 31.1387 20.0791 31.0707 20.7006 31.2869C23.714 32.3348 27.0717 32.8576 31.3059 32.9378C33.7058 32.9833 35.3794 32.9124 37.324 32.6828C41.294 32.2141 44.5711 31.226 46.7028 29.8548C47.7424 29.1861 48.6942 28.0279 48.9023 27.1784C48.9811 26.8569 49.0437 30.5393 48.9684 31.0655ZM19.9732 40.3914C21.3664 40.9477 23.5605 41.5317 25.366 41.8268C29.0032 42.4211 33.5707 42.51 37.3116 42.0593C37.8637 41.9928 38.3263 41.9498 38.3396 41.9638C38.3529 41.9777 38.2462 42.2704 38.1026 42.6143C37.959 42.9582 37.7828 43.4773 37.711 43.7679C37.562 44.3704 37.637 44.3286 36.4885 44.4493C33.2049 44.7942 28.9392 44.6833 25.835 44.1722C22.0498 43.5492 18.9439 42.2983 18.0333 41.0301C17.8178 40.7299 17.7904 40.6257 17.76 39.9917L17.7263 39.287L18.5371 39.7143C18.9831 39.9494 19.6293 40.2541 19.9732 40.3914ZM48.0706 39.6161C50.3892 40.2015 52.2193 42.0402 52.844 44.4119C52.9693 44.8878 53.0087 45.2706 53.0087 46.0142C53.0087 46.7577 52.9693 47.1405 52.844 47.6164C52.2154 50.0028 50.4179 51.8003 48.0315 52.4289C47.5556 52.5542 47.1728 52.5935 46.4293 52.5935C45.6857 52.5935 45.3029 52.5542 44.827 52.4289C42.4406 51.8003 40.6431 50.0028 40.0145 47.6164C39.8892 47.1405 39.8499 46.7577 39.8499 46.0142C39.8499 45.2706 39.8892 44.8878 40.0145 44.4119C40.9573 40.8324 44.5104 38.7173 48.0706 39.6161ZM47.4449 44.725C46.2206 45.9498 45.184 46.952 45.1413 46.952C45.0986 46.952 44.6406 46.5299 44.1236 46.0141L43.1833 45.076L42.3446 45.9173L41.506 46.7585L43.3233 48.5746L45.1407 50.3907L48.2473 47.2833L51.3541 44.1758L50.5126 43.3368L49.671 42.4979L47.4449 44.725Z" fill="black"/>
</svg>
