<svg width="71" height="70" viewBox="0 0 71 70" fill="none" xmlns="http://www.w3.org/2000/svg">
<rect width="70.8232" height="70" rx="35" fill="url(#paint0_linear_160_112)"/>
<path fill-rule="evenodd" clip-rule="evenodd" d="M18.616 16.0408C17.7025 16.1977 16.7375 16.9122 16.3305 17.7333C15.554 19.2995 16.2188 21.1299 17.848 21.911C18.3296 22.1418 18.4188 22.1582 19.1952 22.1582C19.9398 22.1582 20.0757 22.1358 20.4972 21.9436L20.9678 21.729L23.5131 24.2068L26.0583 26.6846L25.6398 27.1919C23.904 29.295 22.9899 31.8194 22.9899 34.5097C22.9899 37.2 23.904 39.7244 25.6398 41.8275L26.0583 42.3348L23.5131 44.8126L20.9678 47.2904L20.4972 47.0758C20.0759 46.8836 19.9396 46.8612 19.1968 46.8612C18.4267 46.8612 18.3286 46.879 17.8317 47.1081C15.8279 48.0324 15.374 50.5729 16.9401 52.0989C18.4885 53.6078 21.0806 53.1604 22.0643 51.2145C22.3014 50.7455 22.3182 50.6586 22.3182 49.9026C22.3182 49.1774 22.2952 49.045 22.0978 48.6345L21.8774 48.1763L24.4219 45.6976L26.9663 43.2189L27.4871 43.6265C29.1529 44.9303 31.1478 45.7828 33.275 46.0998C34.3481 46.2598 36.3892 46.2058 37.4117 45.9904C39.2822 45.5965 41.038 44.7834 42.516 43.6265L43.0368 43.2189L45.5812 45.6976L48.1256 48.1763L47.9052 48.6345C47.7078 49.045 47.6848 49.1774 47.6848 49.9026C47.6848 50.6597 47.7014 50.745 47.9404 51.2177C48.2523 51.8347 48.888 52.444 49.5219 52.7332C49.9254 52.9174 50.0701 52.9407 50.8079 52.9407C51.5853 52.9407 51.673 52.9246 52.1583 52.6918C52.7919 52.3881 53.4176 51.769 53.7146 51.1517C53.9037 50.7588 53.9277 50.6179 53.9277 49.8993C53.9277 49.1422 53.9111 49.0569 53.6721 48.5842C53.3602 47.9672 52.7245 47.3579 52.0906 47.0686C51.6874 46.8846 51.5423 46.8612 50.8062 46.8612C50.0634 46.8612 49.9272 46.8836 49.5058 47.0758L49.0352 47.2904L46.49 44.8126L43.9447 42.3348L44.3633 41.8275C45.5514 40.3878 46.387 38.6766 46.7903 36.8569C47.0166 35.836 47.0692 33.9427 46.9019 32.838C46.5904 30.7798 45.7118 28.8259 44.3633 27.1919L43.9447 26.6846L46.49 24.2068L49.0352 21.729L49.5058 21.9436C49.9272 22.1358 50.0634 22.1582 50.8062 22.1582C51.5763 22.1582 51.6745 22.1405 52.1714 21.9113C53.5054 21.2959 54.231 19.8947 53.934 18.5076C53.3076 15.582 49.3043 15.1035 47.9453 17.7918C47.7007 18.2758 47.6848 18.3565 47.6848 19.1168C47.6848 19.842 47.7078 19.9744 47.9052 20.3849L48.1256 20.8431L45.5812 23.3218L43.0368 25.8005L42.516 25.3929C38.1099 21.9444 31.8931 21.9444 27.4871 25.3929L26.9663 25.8005L24.4219 23.3218L21.8774 20.8431L22.0978 20.3849C22.2952 19.9745 22.3182 19.8419 22.3182 19.1185C22.3182 18.4022 22.2941 18.2602 22.1058 17.8691C21.8228 17.2811 21.5481 16.9425 21.0857 16.6119C20.4075 16.127 19.4301 15.9011 18.616 16.0408ZM19.7429 17.392C20.6422 17.6521 21.2211 18.5953 21.0196 19.4723C20.7746 20.5381 19.7429 21.1533 18.6971 20.8572C17.6553 20.5623 17.1186 19.6146 17.4198 18.6019C17.5858 18.0435 18.0661 17.5616 18.6223 17.3951C19.1135 17.248 19.2438 17.2477 19.7429 17.392ZM51.6749 17.5228C52.1292 17.7429 52.5066 18.2321 52.6273 18.7572C52.9127 19.9994 51.7108 21.1698 50.4353 20.8918C49.0036 20.5798 48.4594 18.9024 49.4521 17.8611C50.0124 17.2734 50.8858 17.1405 51.6749 17.5228ZM34.3067 19.7149L34.3298 20.3113L34.9706 20.3334L35.6114 20.3556L35.6621 19.9957C35.6899 19.7977 35.7127 19.5193 35.7127 19.377V19.1185H34.9982H34.2837L34.3067 19.7149ZM30.754 19.6642C30.4824 19.748 30.2601 19.8562 30.2601 19.9046C30.2601 19.953 30.3386 20.2297 30.4344 20.5196C30.563 20.9085 30.6387 21.0354 30.723 21.004C30.7859 20.9805 31.0631 20.906 31.3389 20.8385C31.6149 20.771 31.8406 20.6836 31.8406 20.6442C31.8406 20.6048 31.7844 20.3319 31.7157 20.0379C31.5715 19.4204 31.5596 19.4157 30.754 19.6642ZM38.3268 19.7918C38.2834 19.9506 38.2257 20.2189 38.1986 20.3882L38.1493 20.6961L38.7514 20.8591C39.4438 21.0466 39.3972 21.0755 39.62 20.3203C39.6934 20.0713 39.7244 19.8426 39.689 19.8122C39.6085 19.7434 38.7122 19.5032 38.5357 19.5032C38.4521 19.5032 38.3774 19.6064 38.3268 19.7918ZM27.2138 21.1056C26.9942 21.2234 26.7384 21.3719 26.6453 21.4355L26.476 21.5509L26.7964 22.047C26.9727 22.3198 27.1286 22.5554 27.1429 22.5705C27.1687 22.5979 27.9997 22.1607 28.183 22.0234C28.2555 21.9691 28.2117 21.8212 28.0042 21.4199C27.8531 21.1276 27.7031 20.8891 27.6711 20.8898C27.6391 20.8906 27.4332 20.9877 27.2138 21.1056ZM42.0024 21.3913C41.8462 21.6679 41.7185 21.9088 41.7185 21.9266C41.7185 21.9712 42.8329 22.6017 42.854 22.5691C43.016 22.3193 43.3025 21.882 43.4075 21.7243L43.5428 21.5212L42.9793 21.2048C42.6694 21.0308 42.3867 20.8885 42.351 20.8885C42.3154 20.8885 42.1585 21.1147 42.0024 21.3913ZM34.3693 26.2369V28.3532H32.428H30.4865L30.5418 28.1801C30.6444 27.8583 31.2276 26.7786 31.5498 26.3139C31.9308 25.7642 32.6831 24.9825 33.1048 24.6979C33.3359 24.542 34.2167 24.1347 34.3496 24.1225C34.3604 24.1215 34.3693 25.0729 34.3693 26.2369ZM36.5704 24.4996C37.0406 24.7332 37.92 25.5685 38.3803 26.2184C38.7591 26.7534 39.3458 27.8181 39.4613 28.1801L39.5165 28.3532H37.5751H35.6337V26.2403V24.1275L35.9377 24.2319C36.1049 24.2894 36.3897 24.4098 36.5704 24.4996ZM30.5465 25.4574C30.0708 26.1031 29.4931 27.1639 29.2313 27.8722L29.0536 28.3532H27.718H26.3824L26.4774 28.1801C26.6399 27.884 28.218 26.3955 28.771 26.0167C29.3302 25.6338 30.7095 24.8941 30.8691 24.8916C30.9215 24.8909 30.7764 25.1454 30.5465 25.4574ZM39.9817 25.2834C41.0012 25.8026 41.9316 26.4923 42.7701 27.3503C43.8253 28.4302 43.8625 28.3532 42.285 28.3532H40.9495L40.7717 27.8722C40.5099 27.1639 39.9322 26.1031 39.4566 25.4574C39.2267 25.1454 39.0771 24.8902 39.1241 24.8902C39.1711 24.8902 39.5571 25.0671 39.9817 25.2834ZM21.4762 26.5283C21.2596 26.8677 21.0144 27.3201 21.0144 27.3804C21.0144 27.4519 22.0545 27.9697 22.1196 27.9306C22.2003 27.8821 22.7789 26.8867 22.7403 26.8628C22.3785 26.6396 22.0395 26.429 21.8822 26.3297C21.6857 26.2057 21.6806 26.2081 21.4762 26.5283ZM47.8033 26.5156C47.5208 26.6893 47.277 26.8427 47.2615 26.8566C47.2333 26.8818 47.6823 27.6911 47.8233 27.8695C47.879 27.9402 48.0327 27.8966 48.4497 27.6922C48.8847 27.4788 48.9914 27.3934 48.9512 27.2908C48.8943 27.1451 48.3578 26.198 48.3329 26.1992C48.3241 26.1996 48.0858 26.342 47.8033 26.5156ZM28.5145 30.1809C28.3281 30.9592 28.1444 32.2046 28.0776 33.1437L28.0241 33.8941H26.1787H24.3333V33.6348C24.3333 32.8502 24.7657 31.242 25.2618 30.1809L25.5407 29.5845H27.099H28.6574L28.5145 30.1809ZM34.3693 31.7393V33.8941H31.8801H29.3909V33.3965C29.3909 32.5833 29.644 30.9875 29.9499 29.8731L30.0291 29.5845H32.1993H34.3693V31.7393ZM40.0531 29.8731C40.359 30.9875 40.6122 32.5833 40.6122 33.3965V33.8941H38.123H35.6337V31.7393V29.5845H37.8038H39.9739L40.0531 29.8731ZM44.7413 30.1809C45.2374 31.242 45.6697 32.8502 45.6697 33.6348V33.8941H43.8235H41.9773L41.923 33.1437C41.8541 32.1888 41.6717 30.9458 41.4886 30.1809L41.3457 29.5845H42.904H44.4624L44.7413 30.1809ZM19.883 29.95C19.7977 30.0933 19.5638 31.1219 19.6069 31.1639C19.6628 31.2183 20.5189 31.4247 20.7055 31.4287C20.7959 31.4307 20.8757 31.2688 20.9903 30.851C21.1725 30.1859 21.198 30.2266 20.4666 30.0159C19.9787 29.8755 19.9306 29.87 19.883 29.95ZM49.3223 30.0675C48.9409 30.1933 48.8372 30.2588 48.8744 30.3504C48.9011 30.4159 48.9783 30.686 49.0461 30.9505C49.1139 31.2151 49.2017 31.4315 49.2413 31.4315C49.2808 31.4315 49.5602 31.3767 49.8621 31.3099C50.4889 31.171 50.4833 31.183 50.2657 30.431C50.096 29.8447 50.0505 29.8271 49.3223 30.0675ZM19.1968 34.5129V35.2088L19.8092 35.1863L20.4217 35.1638L20.4444 34.5395L20.4672 33.9151L20.1679 33.867C20.0032 33.8405 19.7173 33.8184 19.5327 33.8179L19.1968 33.8171V34.5129ZM49.5946 33.8684C49.5656 33.8966 49.5419 34.1863 49.5419 34.5121V35.1044L49.9085 35.1534C50.1101 35.1803 50.3946 35.2023 50.5407 35.2023H50.8062V34.5097V33.8171H50.2268C49.908 33.8171 49.6235 33.8402 49.5946 33.8684ZM28.08 35.8757C28.149 36.8306 28.3313 38.0736 28.5145 38.8385L28.6574 39.4349H27.099H25.5407L25.2618 38.8385C24.7657 37.7774 24.3333 36.1692 24.3333 35.3846V35.1254H26.1796H28.0258L28.08 35.8757ZM34.3693 37.2801V39.4349H32.1993H30.0291L29.9499 39.1463C29.644 38.0319 29.3909 36.4361 29.3909 35.623V35.1254H31.8801H34.3693V37.2801ZM40.6122 35.623C40.6122 36.4361 40.359 38.0319 40.0531 39.1463L39.9739 39.4349H37.8038H35.6337V37.2801V35.1254H38.123H40.6122V35.623ZM45.6697 35.3846C45.6697 36.1692 45.2374 37.7774 44.7413 38.8385L44.4624 39.4349H42.904H41.3457L41.4886 38.8385C41.6717 38.0736 41.8541 36.8306 41.923 35.8757L41.9773 35.1254H43.8235H45.6697V35.3846ZM20.0858 37.7155C19.7485 37.7933 19.5919 37.8665 19.5919 37.9462C19.5919 38.188 19.871 39.0707 19.9577 39.1031C20.0074 39.1216 20.3033 39.0614 20.6152 38.9691C21.0735 38.8335 21.1725 38.7772 21.1312 38.6756C21.1031 38.6065 21.0247 38.3335 20.9569 38.0689C20.8187 37.5299 20.8447 37.5404 20.0858 37.7155ZM49.0151 38.1601C48.9266 38.4831 48.8814 38.7638 48.9146 38.7838C49.1006 38.8957 50.0442 39.1292 50.0929 39.0754C50.1642 38.9965 50.4111 38.1245 50.4111 37.9514C50.4111 37.8211 50.1256 37.7182 49.4972 37.622L49.176 37.5729L49.0151 38.1601ZM29.23 41.1472C29.4737 41.8119 30.1194 42.9878 30.5823 43.6098C30.7949 43.8954 30.9294 44.1292 30.8812 44.1292C30.6831 44.1292 29.2037 43.3096 28.5832 42.856C27.9435 42.3885 26.6385 41.1323 26.4656 40.8176C26.3844 40.6698 26.4143 40.6662 27.718 40.6662H29.0536L29.23 41.1472ZM34.3693 42.7791V44.8919L34.0653 44.7875C32.8658 44.3754 31.7455 43.2527 30.9127 41.6282C30.7391 41.2895 30.5722 40.9346 30.5418 40.8394L30.4865 40.6662H32.428H34.3693V42.7791ZM39.4613 40.8394C39.4309 40.9346 39.264 41.2895 39.0904 41.6282C38.2575 43.2527 37.1372 44.3754 35.9377 44.7875L35.6337 44.8919V42.7791V40.6662H37.5751H39.5165L39.4613 40.8394ZM43.5272 40.8394C43.3374 41.191 41.6638 42.7207 41.0073 43.1423C40.3473 43.5663 39.2686 44.1292 39.1162 44.1292C39.0735 44.1292 39.2267 43.874 39.4566 43.562C39.9322 42.9163 40.5099 41.8555 40.7717 41.1472L40.9495 40.6662H42.285H43.6206L43.5272 40.8394ZM21.5478 41.3293C21.2543 41.4737 21.0144 41.6098 21.0144 41.6318C21.0144 41.6954 21.3872 42.3774 21.5468 42.6057L21.6922 42.8137L22.2028 42.5008C22.4836 42.3288 22.7255 42.1772 22.7403 42.164C22.7731 42.1348 22.2085 41.142 22.134 41.0981C22.105 41.081 21.8412 41.185 21.5478 41.3293ZM47.743 41.3011C47.6592 41.4387 47.5126 41.6788 47.4172 41.8348L47.2437 42.1183L47.7013 42.4178C47.953 42.5825 48.2012 42.7413 48.2529 42.7707C48.3132 42.805 48.4461 42.6512 48.6236 42.3416C49.0543 41.5904 49.0619 41.6429 48.477 41.3299C48.1904 41.1765 47.9423 41.051 47.9256 41.051C47.9089 41.051 47.8267 41.1635 47.743 41.3011ZM26.8088 46.9591L26.4788 47.4736L26.6902 47.6138C26.9116 47.7606 27.6218 48.131 27.682 48.131C27.7545 48.131 28.2855 47.1173 28.2457 47.0546C28.2064 46.9928 27.2224 46.4341 27.1654 46.4413C27.1507 46.4431 26.9902 46.6762 26.8088 46.9591ZM42.2526 46.7521L41.72 47.0602L41.9968 47.5956C42.1491 47.89 42.3057 48.131 42.3448 48.131C42.3838 48.131 42.6694 47.9886 42.9793 47.8146C43.5132 47.5148 43.5372 47.4896 43.4363 47.3336C43.3779 47.2431 43.2252 47.0045 43.0972 46.8036C42.9692 46.6026 42.8466 46.4395 42.8249 46.4411C42.8031 46.4428 42.5457 46.5827 42.2526 46.7521ZM30.5825 48.1229C30.5198 48.2405 30.2601 49.0727 30.2601 49.1563C30.2601 49.2084 30.9319 49.4181 31.302 49.4815C31.5868 49.5303 31.595 49.5249 31.6742 49.2352C31.7187 49.0723 31.7778 48.7982 31.8057 48.6262L31.8561 48.3133L31.2523 48.1564C30.7041 48.014 30.6423 48.0109 30.5825 48.1229ZM38.7551 48.1518C38.4509 48.2393 38.1891 48.3204 38.1734 48.3322C38.1576 48.3439 38.2044 48.6151 38.2775 48.9348C38.3759 49.3655 38.4434 49.5162 38.5381 49.5162C38.7252 49.5162 39.6121 49.2731 39.6981 49.1983C39.7727 49.1334 39.4423 47.9695 39.3537 47.985C39.3287 47.9893 39.0594 48.0644 38.7551 48.1518ZM19.7383 48.1732C20.3316 48.3447 20.8022 48.807 20.9749 49.388C21.2721 50.3872 20.7266 51.3481 19.6966 51.6397C18.6507 51.9358 17.619 51.3205 17.3741 50.2548C17.1769 49.3966 17.751 48.4382 18.6176 48.1789C19.1131 48.0307 19.2431 48.03 19.7383 48.1732ZM51.3477 48.1732C51.941 48.3447 52.4116 48.807 52.5844 49.388C52.8816 50.3872 52.3361 51.3481 51.306 51.6397C50.2601 51.9358 49.2285 51.3205 48.9835 50.2548C48.7863 49.3966 49.3604 48.4382 50.227 48.1789C50.7226 48.0307 50.8525 48.03 51.3477 48.1732ZM34.3406 49.0267C34.3129 49.223 34.2903 49.5001 34.2903 49.6424V49.9009H35.0015H35.7127V49.407C35.7127 48.6673 35.715 48.6696 35.0038 48.6696H34.3908L34.3406 49.0267Z" fill="white"/>
<defs>
<linearGradient id="paint0_linear_160_112" x1="35.4116" y1="0" x2="35.4116" y2="70" gradientUnits="userSpaceOnUse">
<stop stop-color="#CD96E5"/>
<stop offset="1" stop-color="#9D76FB"/>
</linearGradient>
</defs>
</svg>
