<svg width="72" height="70" viewBox="0 0 72 70" fill="none" xmlns="http://www.w3.org/2000/svg">
<rect x="0.597656" width="70.8232" height="70" rx="35" fill="url(#paint0_linear_214_6)"/>
<path fill-rule="evenodd" clip-rule="evenodd" d="M27.3677 15.1225C26.6194 15.3894 26.0367 15.966 25.7348 16.7382C25.642 16.9758 25.6089 17.9216 25.5849 21.0263L25.554 25.0096L25.0589 25.0115C24.1914 25.0148 23.5072 25.4822 23.3052 26.2095C23.2504 26.4065 23.2159 27.8284 23.2167 29.8418C23.218 32.877 23.2315 33.1792 23.3794 33.4986C23.6528 34.0892 24.2123 34.4999 24.7436 34.4999H24.9556V35.8431V37.1863L25.1851 37.3667C25.3112 37.466 25.4893 37.5472 25.5807 37.5472C25.6775 37.5472 26.4093 36.9118 27.332 36.0265L28.9172 34.5058L32.1983 34.5028C34.2976 34.5009 35.5677 34.4665 35.7245 34.4073C36.0729 34.2756 36.444 33.904 36.6317 33.4986C36.7592 33.2231 36.7933 32.9368 36.7948 32.1273L36.7967 31.1043H38.1294H39.4621L42.222 33.7598C44.5884 36.0366 45.0192 36.4154 45.2427 36.4154C45.3874 36.4154 45.581 36.3378 45.6776 36.2412C45.8435 36.0753 45.8517 35.951 45.8517 33.5857V31.1043H46.3296C47.318 31.1043 48.1968 30.5661 48.6326 29.6941L48.899 29.161V23.0506V16.9402L48.6316 16.4051C48.3208 15.783 47.9088 15.411 47.2632 15.1693C46.8145 15.0013 46.5621 14.997 37.2505 15.0007C29.4437 15.0039 27.6378 15.0261 27.3677 15.1225ZM47.0862 16.3715C47.2743 16.4884 47.481 16.7245 47.5868 16.9431C47.7636 17.3084 47.7672 17.4281 47.7672 23.0506C47.7672 28.6242 47.7622 28.7955 47.5917 29.1395C47.3042 29.7198 47.0736 29.8307 46.0263 29.892C45.5233 29.9216 45.0483 29.9735 44.971 30.0074C44.6786 30.1357 44.6328 30.4696 44.6328 32.4679V34.4328L43.3245 33.1821C42.6049 32.4942 41.5413 31.4808 40.9609 30.9301L39.9055 29.9289L38.3511 29.9016L36.7967 29.8744V28.1357C36.7967 26.7634 36.7683 26.3291 36.662 26.0746C36.4822 25.6443 36.217 25.3687 35.7955 25.1742C35.4718 25.0248 35.1406 25.0133 31.1156 25.0115L26.784 25.0096V21.1804C26.784 17.8598 26.8027 17.3046 26.9246 17.0001C27.0857 16.5973 27.4571 16.2986 27.9083 16.2087C28.0801 16.1745 32.3933 16.1523 37.4933 16.1594L46.7659 16.1723L47.0862 16.3715ZM36.9519 20.1291C30.2756 20.1738 29.737 20.1884 29.573 20.3289C29.3411 20.5274 29.3443 20.9307 29.5793 21.1434C29.7572 21.3043 29.9865 21.3084 37.263 21.2786C44.7088 21.2482 44.7647 21.2467 44.9593 21.0676C45.3617 20.6968 45.0966 20.1379 44.5013 20.1018C44.3102 20.0902 40.913 20.1025 36.9519 20.1291ZM40.0204 25.0746C39.2853 25.109 39.0605 25.2397 39.0605 25.6326C39.0605 25.7688 39.1418 25.9616 39.2412 26.061C39.4176 26.2374 39.486 26.2411 42.1222 26.2134L44.8225 26.185L44.9888 25.9794C45.2086 25.7079 45.1994 25.4058 44.9646 25.1871C44.7829 25.0178 44.6795 25.0104 42.7226 25.0269C41.5944 25.0364 40.3783 25.0579 40.0204 25.0746ZM35.4733 26.333C35.5509 26.4106 35.5778 27.2882 35.5778 29.7435C35.5778 32.6977 35.5625 33.0665 35.4337 33.2088C35.2987 33.3579 35.072 33.368 31.8623 33.368H28.435L27.3266 34.4187L26.2181 35.4692L26.1687 34.5803C26.1085 33.4977 26.0086 33.368 25.2358 33.368C24.385 33.368 24.4332 33.5848 24.4332 29.7587C24.4332 27.2916 24.4601 26.4106 24.5377 26.333C24.6887 26.182 35.3223 26.182 35.4733 26.333ZM27.4134 29.2959C27.1916 29.4028 27.0879 29.6965 27.1643 30.0011C27.2629 30.3938 27.5028 30.4233 30.087 30.36C32.7671 30.2944 32.8787 30.2706 32.8787 29.7662C32.8787 29.1946 32.8467 29.1881 30.0857 29.1947C28.4836 29.1985 27.5414 29.2342 27.4134 29.2959ZM52.8945 35.2373C52.4089 35.4161 52.1468 35.6006 48.3331 38.4492C46.3697 39.9156 44.7366 41.1158 44.7039 41.1162C44.6712 41.1166 44.622 41.0463 44.5946 40.9599C44.5006 40.6636 43.8209 40.0496 43.3345 39.8215L42.8479 39.5933L38.8863 39.5496L34.9248 39.5059L33.4807 38.7872C31.6415 37.8718 30.9427 37.6809 29.6586 37.7428C28.2805 37.8092 27.6344 38.0871 25.1819 39.6685C23.1296 40.9919 23.0449 41.0258 23.0415 40.5249C23.0382 40.0289 22.4217 39.3632 21.8143 39.1996C21.5849 39.1379 20.7027 39.1131 19.3535 39.1306C17.2961 39.1574 17.2419 39.1627 16.8716 39.3747C16.6384 39.5082 16.4044 39.7423 16.2622 39.9841L16.0313 40.3769L16.0059 46.4281C15.9882 50.6689 16.0097 52.5964 16.0778 52.871C16.2089 53.3996 16.5433 53.8147 17.0013 54.0172C17.3502 54.1716 17.5656 54.183 19.6729 54.1593L21.9651 54.1335L22.3267 53.894C22.8232 53.5652 23.0476 53.0906 23.1054 52.2469C23.1311 51.8718 23.1643 51.565 23.1793 51.565C23.1942 51.565 24.1975 51.3701 25.4088 51.1321C29.6192 50.3044 31.8422 50.0168 32.8352 50.1711C33.1225 50.2158 33.7178 50.3492 34.158 50.4676C35.7094 50.8847 36.5388 50.8554 38.7768 50.3041C41.5402 49.6234 44.0241 48.7139 44.8762 48.0706C45.8383 47.3442 48.0136 45.4266 50.6839 42.9514C52.1684 41.5753 53.7356 40.1392 54.1666 39.7601C55.5555 38.5386 55.8381 38.2314 55.9474 37.8243C56.1794 36.9607 55.6194 35.8104 54.7443 35.3533C54.2159 35.0773 53.4583 35.0298 52.8945 35.2373ZM54.2027 36.3938C54.3663 36.4774 54.572 36.6825 54.6598 36.8493C54.967 37.4327 54.9213 37.5164 53.7095 38.5894C53.099 39.1301 51.5807 40.5187 50.3356 41.6752C45.9397 45.7586 44.2545 47.1958 43.4138 47.5786C42.5693 47.963 40.2509 48.7163 38.6251 49.1345C37.3268 49.4684 37.0838 49.5047 36.1002 49.5111C35.1423 49.5173 34.9128 49.4884 34.1847 49.2697C33.7235 49.131 33.0495 49.0013 32.6611 48.9762C31.3751 48.8934 29.0865 49.1996 25.0455 49.9952C24.0653 50.1882 23.2328 50.3461 23.1953 50.3461C23.1579 50.3461 23.1275 48.5536 23.1278 46.3628L23.1284 42.3794L25.2323 41.0299C26.3895 40.2877 27.4944 39.5899 27.6875 39.4794C28.1951 39.1888 28.9208 38.9647 29.5702 38.8979C30.5264 38.7995 31.2185 39.0019 33.1399 39.9415L34.8377 40.7717L38.6932 40.7702C42.8822 40.7686 42.8845 40.7688 43.3436 41.2586C43.4762 41.4001 43.6193 41.6939 43.6732 41.9349C43.7584 42.3161 43.7475 42.4028 43.5694 42.7575C43.1799 43.5333 43.3166 43.5054 39.656 43.5548L36.4329 43.5984L36.2665 43.8039C36.0521 44.069 36.0564 44.2593 36.2837 44.5483L36.4672 44.7815L39.7446 44.7559C42.9307 44.7309 43.032 44.7249 43.3804 44.5385C44.1302 44.1374 44.6901 43.4533 44.8009 42.8032C44.8462 42.5377 45.1889 42.2596 48.7684 39.5848C50.9233 37.9746 52.8823 36.5638 53.1218 36.4499C53.6428 36.2022 53.8114 36.1934 54.2027 36.3938ZM21.749 40.4775C21.9004 40.6144 21.9083 40.9201 21.9083 46.6426C21.9083 51.7052 21.8886 52.6905 21.7847 52.8326C21.6683 52.9919 21.5394 53.0016 19.5575 53.0016C17.5756 53.0016 17.4467 52.9919 17.3302 52.8326C17.2264 52.6905 17.2067 51.7073 17.2067 46.6577C17.2067 41.1913 17.2197 40.6375 17.3508 40.4926C17.4826 40.347 17.6694 40.3334 19.5423 40.3334C21.3254 40.3334 21.6104 40.352 21.749 40.4775Z" fill="white"/>
<defs>
<linearGradient id="paint0_linear_214_6" x1="36.0093" y1="0" x2="36.0093" y2="70" gradientUnits="userSpaceOnUse">
<stop stop-color="#CD96E5"/>
<stop offset="1" stop-color="#9D76FB"/>
</linearGradient>
</defs>
</svg>
