<svg width="71" height="70" viewBox="0 0 71 70" fill="none" xmlns="http://www.w3.org/2000/svg">
<rect width="70.8232" height="70" rx="35" fill="white"/>
<path fill-rule="evenodd" clip-rule="evenodd" d="M23.4282 15.1451C23.1918 15.2215 22.8416 15.3647 22.6501 15.4633C22.1973 15.6964 21.4909 16.4163 21.2225 16.9184C20.7854 17.7361 20.7708 17.8999 20.7708 22.0071V25.7792L19.3006 26.5205C17.7457 27.3045 17.2716 27.6456 16.8783 28.2637C16.372 29.0593 16.3878 28.7777 16.4115 36.5765L16.4331 43.6424L16.6425 44.2157C16.9491 45.055 17.2971 45.5957 17.9655 46.2718L18.5601 46.8731L26.3675 50.7755C32.2823 53.7319 34.3169 54.7138 34.761 54.8265C35.5786 55.034 37.2266 55.0339 38.0436 54.8264C38.4872 54.7137 40.5291 53.7284 46.4357 50.7768L54.2416 46.8761L54.8376 46.2733C55.5076 45.5958 55.8554 45.0554 56.1622 44.2157L56.3716 43.6424L56.3932 36.5765C56.4169 28.7777 56.4327 29.0593 55.9264 28.2637C55.5331 27.6456 55.059 27.3045 53.5041 26.5205L52.0338 25.7792V22.0071C52.0338 17.8999 52.0193 17.7361 51.5822 16.9184C51.304 16.3981 50.5994 15.6908 50.1148 15.4454C49.1729 14.9684 50.0683 14.9973 36.3686 15.0019C24.5982 15.0058 23.8327 15.0144 23.4282 15.1451ZM48.9639 17.5191C49.1024 17.5948 49.3047 17.7876 49.4133 17.9476L49.611 18.2384V25.4903V32.7422L43.7615 35.6626C37.6364 38.7207 37.3654 38.8373 36.3869 38.8346C35.5034 38.8321 35.1554 38.6803 29.0998 35.6541L23.1937 32.7027V25.4642V18.2256L23.4287 17.9013C23.5579 17.7229 23.6722 17.5764 23.6827 17.5757C23.6932 17.5751 23.8424 17.5237 24.0144 17.4614C24.2829 17.3642 26.0449 17.3506 36.5196 17.3649C47.9945 17.3805 48.727 17.3896 48.9639 17.5191ZM27.7269 20.103C26.0376 20.5779 24.937 22.229 25.2103 23.8781C25.463 25.4033 26.6416 26.5418 28.1721 26.7392C28.5075 26.7825 28.8829 26.8549 29.0061 26.9002C29.6519 27.1371 29.6977 28.3076 29.0737 28.6249C28.9528 28.6864 28.5166 28.7494 28.0678 28.7702C27.1655 28.812 26.855 28.9401 26.6008 29.3753C26.3927 29.7317 26.3937 30.3249 26.6029 30.6051C26.942 31.0593 27.1302 31.1353 27.9863 31.1632C29.3242 31.2068 30.1409 30.9421 30.9087 30.216C31.4143 29.7377 31.7488 29.0781 31.8759 28.3087C31.9947 27.5895 31.8862 26.9486 31.5199 26.2048C31.0245 25.1988 30.183 24.6378 28.8474 24.4233C28.4535 24.36 28.0619 24.265 27.9772 24.2121C27.4446 23.8794 27.4474 22.8638 27.9817 22.5634C28.0779 22.5092 28.526 22.444 28.9774 22.4184C29.8948 22.3666 30.1913 22.2562 30.4719 21.8622C30.7129 21.5237 30.7252 20.8837 30.4966 20.5772C30.1397 20.0987 29.9815 20.0404 28.9915 20.0214C28.4385 20.0109 27.9399 20.043 27.7269 20.103ZM33.9795 20.1384C33.829 20.2214 33.6268 20.4052 33.5301 20.5468L33.3542 20.8045V25.588V30.3716L33.5301 30.6293C33.8356 31.0768 34.1512 31.1944 34.9253 31.1491C37.2925 31.0106 39.4036 29.2106 39.9584 26.8575C40.1067 26.2285 40.1059 24.9441 39.9568 24.3116C39.6924 23.1901 38.9739 22.0387 38.0766 21.2986C37.1465 20.5314 36.0869 20.1111 34.8783 20.0298C34.3549 19.9946 34.2084 20.0123 33.9795 20.1384ZM42.2212 20.1055C41.9047 20.249 41.5778 20.6479 41.5213 20.9595C41.4963 21.098 41.4861 23.275 41.4987 25.7973C41.5212 30.289 41.5249 30.3879 41.6828 30.5992C41.9808 30.9983 42.242 31.1372 42.694 31.1372C43.1735 31.1372 43.458 30.9708 43.7101 30.5428C43.8324 30.3353 43.8749 30.0873 43.9055 29.4039L43.9445 28.5302L44.7261 29.6282C45.156 30.2321 45.6055 30.8084 45.7249 30.909C46.5699 31.6204 47.9278 30.7096 47.5825 29.6633C47.533 29.5133 46.8661 28.514 46.1005 27.4426L44.7085 25.4946L46.1015 23.6369C46.8677 22.6152 47.5346 21.6579 47.5836 21.5096C47.8396 20.7338 47.0962 19.8928 46.2725 20.0264C45.8356 20.0973 45.6736 20.2511 44.7737 21.4484L43.9228 22.5805L43.8939 21.7396C43.8624 20.8253 43.7513 20.5151 43.3477 20.2143C43.0851 20.0185 42.5309 19.965 42.2212 20.1055ZM36.1037 22.8206C36.8718 23.2125 37.5078 24.1385 37.6736 25.1065C37.837 26.0606 37.4909 27.1252 36.7891 27.8269C36.4835 28.1325 35.8983 28.519 35.7411 28.519C35.7179 28.519 35.6989 27.2 35.6989 25.588C35.6989 23.976 35.7179 22.6571 35.7411 22.6571C35.7643 22.6571 35.9275 22.7307 36.1037 22.8206ZM20.7708 29.9624V31.4841L19.9727 31.0938C19.5338 30.8792 19.0959 30.6296 18.9998 30.5393C18.7453 30.3002 18.6992 29.9802 18.8693 29.6334C18.991 29.3849 19.14 29.276 19.872 28.9002C20.3449 28.6574 20.7405 28.4547 20.7513 28.4498C20.7621 28.4449 20.7708 29.1255 20.7708 29.9624ZM53.8923 29.5181C54.0817 29.8073 54.0486 30.2805 53.8219 30.524C53.6701 30.6869 52.2177 31.4889 52.0743 31.4889C52.0521 31.4889 52.0338 30.8017 52.0338 29.9617V28.4344L52.8975 28.8761C53.4084 29.1375 53.8147 29.3996 53.8923 29.5181ZM26.456 37.0272C35.0353 41.3144 34.7377 41.1898 36.4023 41.1898C38.0669 41.1898 37.7694 41.3144 46.3487 37.0272C50.5517 34.9269 54.0075 33.2084 54.0283 33.2084C54.1052 33.2084 54.0653 42.6473 53.9866 43.0624C53.8744 43.6544 53.6223 44.1318 53.1976 44.5569C52.8746 44.8803 51.9415 45.3689 45.4089 48.6353C41.3269 50.6764 37.78 52.4078 37.5269 52.483C37.2464 52.5663 36.8073 52.6197 36.4023 52.6197C35.9974 52.6197 35.5583 52.5663 35.2778 52.483C35.0247 52.4078 31.4778 50.6764 27.3958 48.6353C20.8631 45.3689 19.9301 44.8803 19.6071 44.5569C19.1824 44.1318 18.9303 43.6544 18.8181 43.0624C18.7394 42.6473 18.6995 33.2084 18.7764 33.2084C18.7972 33.2084 22.2529 34.9269 26.456 37.0272Z" fill="black"/>
<line x1="57.3973" y1="14.1225" x2="13.3973" y2="53.1225" stroke="black" stroke-width="3"/>
</svg>
