<svg width="72" height="70" viewBox="0 0 72 70" fill="none" xmlns="http://www.w3.org/2000/svg">
<rect x="0.597656" width="70.8232" height="70" rx="35" fill="url(#paint0_linear_214_3)"/>
<path fill-rule="evenodd" clip-rule="evenodd" d="M35.1799 15.1723C34.965 15.2735 34.6593 15.5004 34.5005 15.6764C34.0642 16.1604 33.9686 16.5923 33.9686 18.0776C33.9686 19.5482 33.9775 19.5298 33.1089 19.8609C32.8295 19.9674 32.3978 20.1459 32.1493 20.2576C31.3679 20.6089 31.3136 20.5889 30.2095 19.5402C29.6765 19.034 29.1371 18.554 29.0108 18.4737C28.8685 18.3832 28.5783 18.313 28.2485 18.2894C27.3194 18.223 27.2081 18.2954 25.2865 20.2179C24.2585 21.2464 23.5407 22.0286 23.4499 22.219C23.3444 22.4403 23.301 22.7027 23.301 23.1177C23.301 23.9189 23.4427 24.134 24.9611 25.6381C26.1183 26.7845 26.2236 26.869 26.4947 26.869C26.8898 26.869 27.1695 26.591 27.1695 26.1984C27.1695 25.9325 27.0775 25.8183 25.919 24.6465C24.2402 22.9481 24.2225 23.2249 26.134 21.2994C26.9399 20.4876 27.6982 19.7713 27.819 19.7077C28.1848 19.5151 28.4561 19.6727 29.3982 20.6254C30.7942 22.0371 31.2143 22.1411 32.8234 21.4728C34.3783 20.827 34.5106 20.757 34.8272 20.4136C35.2801 19.9223 35.3753 19.5028 35.3753 17.9983C35.3753 16.7433 35.3764 16.7356 35.5769 16.5471L35.7784 16.3577L37.8763 16.3346C40.1708 16.3093 40.4882 16.3553 40.5659 16.7237C40.5869 16.8233 40.6177 17.5026 40.6342 18.2333C40.661 19.4143 40.684 19.6028 40.8409 19.9308C41.0885 20.4487 41.5063 20.7932 42.2225 21.07C42.5614 21.201 43.0849 21.4227 43.3858 21.5628C43.8437 21.7759 44.0283 21.8182 44.519 21.8228C45.3171 21.8302 45.5384 21.7052 46.6681 20.6093C47.1839 20.1089 47.6833 19.6755 47.7779 19.6462C47.8786 19.6149 48.0404 19.641 48.1686 19.7089C48.4317 19.8483 51.1848 22.6123 51.3141 22.8667C51.364 22.965 51.3808 23.1233 51.3513 23.2184C51.3218 23.3134 50.8883 23.8133 50.3879 24.3291C49.8875 24.8449 49.4105 25.4076 49.3278 25.5795C49.2452 25.7514 49.1631 26.107 49.1453 26.3698C49.1163 26.7986 49.1485 26.9304 49.4598 27.6592C49.6505 28.1057 49.9041 28.7076 50.0233 28.9967C50.1632 29.3361 50.3473 29.6193 50.5428 29.796C51.0646 30.2675 51.2873 30.324 52.7639 30.3604C53.4946 30.3784 54.1739 30.4103 54.2734 30.4313C54.6419 30.509 54.6879 30.8264 54.6626 33.1209L54.6395 35.2188L54.4501 35.4203C54.2616 35.6208 54.2539 35.6219 52.9989 35.6219C51.4944 35.6219 51.0749 35.7171 50.5836 36.17C50.2402 36.4865 50.1702 36.6189 49.5244 38.1738C48.8561 39.7829 48.96 40.203 50.3718 41.599C51.3245 42.5411 51.4821 42.8124 51.2895 43.1782C51.2259 43.299 50.5096 44.0573 49.6978 44.8632C47.7723 46.7747 48.0491 46.757 46.3507 45.0781C45.146 43.8874 45.071 43.8277 44.7769 43.8277C44.2747 43.8277 43.9677 44.2669 44.1592 44.7113C44.2915 45.0182 46.642 47.3487 47.0198 47.5476C47.4043 47.75 48.353 47.7498 48.7782 47.5472C48.9686 47.4565 49.7508 46.7387 50.7792 45.7107C52.7018 43.789 52.7742 43.6778 52.7078 42.7487C52.6846 42.4246 52.6133 42.1262 52.5258 41.9864C52.4467 41.8601 51.9667 41.3291 51.4592 40.8064C50.3715 39.686 50.3702 39.6817 50.8379 38.6147C51.0035 38.2367 51.1819 37.796 51.2342 37.6355C51.4148 37.0818 51.5658 37.0286 52.9556 37.0286C54.4266 37.0286 54.846 36.9312 55.3415 36.4745C55.5259 36.3045 55.7525 35.9894 55.8451 35.7742C56.0074 35.397 56.0125 35.2951 55.9907 32.904C55.9707 30.7039 55.9523 30.3931 55.8277 30.1429C55.6244 29.7345 55.2429 29.3725 54.7958 29.1633C54.4341 28.9942 54.3053 28.9805 53.0656 28.9798C51.8995 28.9791 51.704 28.9611 51.5547 28.8403C51.3392 28.6658 50.6076 26.9439 50.5575 26.4935L50.5202 26.1571L51.4617 25.204C52.5308 24.1217 52.7214 23.8002 52.7214 23.0787C52.7214 22.2907 52.5752 22.0795 50.7859 20.2821C48.9648 18.4528 48.706 18.2713 47.9227 18.2741C47.1968 18.2768 46.8749 18.4669 45.8015 19.5273C44.9647 20.3539 44.8263 20.4605 44.5902 20.4598C44.2436 20.4587 42.3324 19.658 42.1549 19.4394C42.0366 19.2937 42.0181 19.0902 42.0174 17.9316C42.0166 16.6919 42.003 16.5631 41.8339 16.2014C41.6247 15.7543 41.2626 15.3728 40.8543 15.1695C40.6036 15.0447 40.2953 15.0269 38.0715 15.0087C35.5874 14.9884 35.5681 14.9895 35.1799 15.1723ZM36.9774 24.3793C35.2544 24.5688 33.3127 25.4683 32.1125 26.633C31.7598 26.9752 31.7022 27.0726 31.7022 27.3272C31.7022 27.5352 31.7545 27.6703 31.8781 27.7816C32.2788 28.1423 32.4875 28.0874 33.2888 27.4106C34.8378 26.1022 36.7223 25.5147 38.7559 25.706C41.8992 26.0018 44.5355 28.361 45.1872 31.4611C45.3375 32.1766 45.3574 33.5943 45.2263 34.2571C44.9497 35.656 44.4074 36.7581 43.4558 37.8558C43.2291 38.1173 43.021 38.4213 42.9934 38.5312C42.9224 38.8141 43.1348 39.1821 43.4281 39.2844C43.7767 39.406 44.0424 39.2669 44.5287 38.7088C47.1287 35.7246 47.3862 31.4227 45.1639 28.0963C44.6879 27.3838 43.6134 26.3093 42.9009 25.8332C41.6857 25.0214 40.2982 24.5162 38.8858 24.3713C38.0027 24.2806 37.8686 24.2812 36.9774 24.3793ZM27.5993 28.3571C26.9482 28.5102 26.4618 28.8983 26.1834 29.487C26.038 29.7946 25.9983 30.0108 25.9968 30.503C25.9958 30.8469 25.9515 31.2161 25.8983 31.3236C25.7793 31.5644 25.0384 31.9429 24.6791 31.9463C24.4661 31.9483 24.3254 31.8649 23.9395 31.5076C23.3341 30.9472 22.8157 30.6999 22.246 30.6999C21.5131 30.6999 21.1829 30.9186 19.8108 32.313C18.6763 33.4658 18.5773 33.5896 18.4549 34.0106C18.2203 34.8178 18.4257 35.4691 19.159 36.2436C19.3847 36.4819 19.5923 36.7519 19.6205 36.8435C19.6807 37.0396 19.421 37.7825 19.1892 38.0772C19.0481 38.2565 18.9749 38.279 18.532 38.279C17.2528 38.279 16.4602 38.7217 16.1134 39.6297C16.0024 39.9204 15.9869 40.2403 16.0081 41.8015C16.0356 43.8282 16.0458 43.8745 16.5826 44.4113C17.0152 44.8438 17.2776 44.941 18.1659 44.9979C18.881 45.0436 18.9903 45.0705 19.1504 45.2396C19.4049 45.5086 19.6896 46.2278 19.6321 46.4568C19.6062 46.5602 19.3575 46.8926 19.0795 47.1956C18.33 48.0122 18.163 48.7676 18.5484 49.5978C18.7445 50.0203 20.8392 52.1224 21.3315 52.3908C21.6604 52.57 21.8357 52.6124 22.2498 52.6126C22.8853 52.6129 23.2843 52.4239 23.8871 51.8368C24.4223 51.3156 24.6036 51.2661 25.1479 51.4924C25.8706 51.7929 25.9398 51.9018 25.9993 52.8313C26.0562 53.7196 26.1534 53.982 26.5859 54.4146C27.1227 54.9514 27.169 54.9616 29.1957 54.9891C30.7569 55.0103 31.0768 54.9948 31.3675 54.8837C32.2755 54.537 32.7182 53.7444 32.7182 52.4652C32.7182 52.0223 32.7407 51.9491 32.92 51.808C33.2147 51.5762 33.9576 51.3165 34.1537 51.3767C34.2452 51.4049 34.5153 51.6125 34.7536 51.8382C35.535 52.5781 36.1703 52.7789 36.9851 52.5435C37.4163 52.4189 37.5268 52.3307 38.6836 51.1864C39.3641 50.5133 39.9922 49.8245 40.0794 49.6556C40.1667 49.4868 40.2565 49.1442 40.2792 48.8942C40.3367 48.26 40.1563 47.8361 39.5455 47.1706C39.1207 46.7077 39.0488 46.5871 39.0509 46.3419C39.0543 45.9628 39.4256 45.2214 39.6736 45.0989C39.7811 45.0457 40.1503 45.001 40.4942 44.9995C41.4048 44.9952 41.9459 44.7229 42.373 44.054C42.6652 43.5962 42.7418 42.9778 42.7074 41.3545C42.6719 39.6828 42.6009 39.4176 42.0473 38.8885C41.6283 38.4881 41.2523 38.3525 40.4242 38.3032C40.0329 38.2799 39.6397 38.2153 39.5504 38.1598C39.3619 38.0425 39.0484 37.2785 39.0484 36.9367C39.0484 36.757 39.1566 36.5897 39.5136 36.2179C40.0804 35.6278 40.2951 35.1856 40.2963 34.6059C40.298 33.8651 40.0479 33.4675 38.7872 32.2068C37.4602 30.8798 37.0788 30.6531 36.2808 30.7172C35.6777 30.7656 35.4082 30.904 34.7818 31.4867C34.3776 31.8627 34.2356 31.9488 34.0194 31.9488C33.6863 31.9488 32.9071 31.6104 32.8112 31.4242C32.7717 31.3473 32.7196 30.9643 32.6955 30.573C32.6444 29.7442 32.5086 29.3683 32.1087 28.9499C31.5644 28.3803 31.3306 28.3219 29.514 28.3016C28.6328 28.2917 27.7712 28.3167 27.5993 28.3571ZM30.9508 29.7707C31.2119 29.8897 31.2954 30.1449 31.3312 30.9328C31.3817 32.0441 31.7703 32.5882 32.8424 33.0492C33.3486 33.2669 33.5597 33.3152 34.0077 33.3157C34.6862 33.3166 34.9939 33.1751 35.6527 32.5587C36.0675 32.1707 36.1806 32.1051 36.4345 32.1051C36.7117 32.1051 36.8026 32.1764 37.8117 33.1855C38.8202 34.194 38.8921 34.2856 38.8921 34.5622C38.8921 34.8132 38.8261 34.9299 38.4607 35.3244C37.8376 35.9975 37.6852 36.3251 37.6862 36.9895C37.6867 37.4354 37.7355 37.6509 37.9503 38.1548C38.4068 39.2259 38.9517 39.6154 40.0644 39.666C40.8523 39.7018 41.1075 39.7853 41.2265 40.0464C41.2822 40.1685 41.3148 40.7858 41.3148 41.717C41.3148 43.1474 41.3091 43.2004 41.1342 43.4038C40.9668 43.5984 40.8939 43.6177 40.1377 43.6677C38.8885 43.7504 38.5024 44.0097 37.9796 45.1175C37.7205 45.6665 37.6847 45.8136 37.6843 46.3286C37.6838 47.0346 37.7874 47.2592 38.4342 47.9531C38.8243 48.3716 38.8921 48.4879 38.8921 48.738C38.8921 49.0122 38.8177 49.1056 37.7724 50.1419C36.409 51.4937 36.4117 51.4929 35.6427 50.7775C34.7252 49.924 34.0826 49.7999 32.9291 50.2538C31.7701 50.7099 31.3115 51.3723 31.3115 52.5902C31.3115 53.1189 31.2872 53.2254 31.123 53.4164L30.9345 53.6357L29.5412 53.6619C27.8869 53.6932 27.6015 53.6362 27.4369 53.2425C27.3758 53.0961 27.3258 52.7419 27.3258 52.4554C27.3258 51.3464 26.9022 50.7483 25.782 50.2757C25.1633 50.0148 25.0466 49.9906 24.5514 50.021C23.8892 50.0617 23.676 50.1657 23 50.7783C22.2129 51.4917 22.2202 51.4939 20.8617 50.1354C19.5033 48.777 19.5055 48.7843 20.2189 47.9972C20.8315 47.3212 20.9355 47.108 20.9762 46.4458C21.0066 45.9506 20.9824 45.8339 20.7215 45.2152C20.2489 44.095 19.6508 43.6714 18.5418 43.6714C18.2553 43.6714 17.9011 43.6214 17.7547 43.5603C17.361 43.3957 17.304 43.1103 17.3353 41.456L17.3615 40.0627L17.5808 39.8742C17.7718 39.71 17.8783 39.6857 18.407 39.6857C19.6248 39.6857 20.2873 39.2271 20.7434 38.0681C21.1977 36.9135 21.0636 36.227 20.2104 35.3384C19.4957 34.5941 19.5 34.5799 20.8578 33.2198C21.8915 32.1841 21.991 32.1051 22.2616 32.1051C22.5088 32.1051 22.6272 32.1744 23.0441 32.563C23.6402 33.1186 23.9347 33.2774 24.4714 33.3328C24.9172 33.3788 25.4244 33.2472 26.1144 32.9065C26.9842 32.4769 27.2524 32.0253 27.3295 30.8594C27.3795 30.1033 27.3988 30.0303 27.5934 29.863C27.7968 29.6881 27.8498 29.6824 29.2802 29.6824C30.2114 29.6824 30.8286 29.715 30.9508 29.7707ZM28.3808 35.734C27.051 35.955 26.125 36.4353 25.1307 37.4194C24.3695 38.1727 23.9225 38.8711 23.605 39.803C23.3015 40.6939 23.2501 42.1058 23.4868 43.0528C24.1692 45.7839 26.544 47.6606 29.3116 47.6558C30.6544 47.6535 31.5865 47.3696 32.7608 46.6056C33.1067 46.3806 33.5917 45.9992 33.8387 45.7581C35.0005 44.6239 35.6281 42.0647 35.1842 40.2719C34.9964 39.5131 34.4459 38.4116 33.9631 37.8283C32.6542 36.2471 30.3942 35.3992 28.3808 35.734ZM30.3668 37.149C32.3426 37.6147 33.7875 39.303 33.9437 41.3285C34.0077 42.1596 33.8639 42.8673 33.4587 43.7146C32.847 44.9941 31.6489 45.9101 30.2011 46.2056C29.4723 46.3544 29.264 46.3551 28.4618 46.2122C26.3414 45.8344 24.6714 43.8369 24.6714 41.6786C24.6714 40.7343 25.1284 39.4568 25.7198 38.7479C26.8622 37.3785 28.6828 36.7521 30.3668 37.149Z" fill="white"/>
<defs>
<linearGradient id="paint0_linear_214_3" x1="36.0093" y1="0" x2="36.0093" y2="70" gradientUnits="userSpaceOnUse">
<stop stop-color="#CD96E5"/>
<stop offset="1" stop-color="#9D76FB"/>
</linearGradient>
</defs>
</svg>
