<svg width="72" height="70" viewBox="0 0 72 70" fill="none" xmlns="http://www.w3.org/2000/svg">
<rect x="0.597656" width="70.8232" height="70" rx="35" fill="url(#paint0_linear_214_2)"/>
<path fill-rule="evenodd" clip-rule="evenodd" d="M24.0259 15.1451C23.7894 15.2215 23.4393 15.3647 23.2478 15.4633C22.795 15.6964 22.0886 16.4163 21.8202 16.9184C21.383 17.7361 21.3685 17.8999 21.3685 22.0071V25.7792L19.8983 26.5205C18.3433 27.3045 17.8692 27.6456 17.4759 28.2637C16.9696 29.0593 16.9854 28.7777 17.0092 36.5765L17.0308 43.6424L17.2401 44.2157C17.5468 45.055 17.8947 45.5957 18.5632 46.2718L19.1577 46.8731L26.9651 50.7755C32.88 53.7319 34.9146 54.7138 35.3587 54.8265C36.1763 55.034 37.8242 55.0339 38.6413 54.8264C39.0848 54.7137 41.1267 53.7284 47.0333 50.7768L54.8392 46.8761L55.4352 46.2733C56.1052 45.5958 56.4531 45.0554 56.7599 44.2157L56.9692 43.6424L56.9908 36.5765C57.0146 28.7777 57.0304 29.0593 56.5241 28.2637C56.1308 27.6456 55.6567 27.3045 54.1017 26.5205L52.6315 25.7792V22.0071C52.6315 17.8999 52.617 17.7361 52.1798 16.9184C51.9017 16.3981 51.1971 15.6908 50.7124 15.4454C49.7705 14.9684 50.666 14.9973 36.9662 15.0019C25.1959 15.0058 24.4303 15.0144 24.0259 15.1451ZM49.5616 17.5191C49.7 17.5948 49.9023 17.7876 50.011 17.9476L50.2086 18.2384V25.4903V32.7422L44.3592 35.6626C38.2341 38.7207 37.9631 38.8373 36.9846 38.8346C36.101 38.8321 35.7531 38.6803 29.6974 35.6541L23.7914 32.7027V25.4642V18.2256L24.0263 17.9013C24.1556 17.7229 24.2699 17.5764 24.2803 17.5757C24.2908 17.5751 24.4401 17.5237 24.612 17.4614C24.8806 17.3642 26.6426 17.3506 37.1172 17.3649C48.5922 17.3805 49.3247 17.3896 49.5616 17.5191ZM28.3245 20.103C26.6353 20.5779 25.5347 22.229 25.808 23.8781C26.0607 25.4033 27.2393 26.5418 28.7698 26.7392C29.1052 26.7825 29.4805 26.8549 29.6038 26.9002C30.2495 27.1371 30.2953 28.3076 29.6714 28.6249C29.5504 28.6864 29.1143 28.7494 28.6654 28.7702C27.7632 28.812 27.4527 28.9401 27.1985 29.3753C26.9904 29.7317 26.9914 30.3249 27.2005 30.6051C27.5397 31.0593 27.7279 31.1353 28.584 31.1632C29.9218 31.2068 30.7386 30.9421 31.5063 30.216C32.012 29.7377 32.3465 29.0781 32.4736 28.3087C32.5924 27.5895 32.4839 26.9486 32.1176 26.2048C31.6221 25.1988 30.7806 24.6378 29.4451 24.4233C29.0511 24.36 28.6596 24.265 28.5749 24.2121C28.0423 23.8794 28.045 22.8638 28.5793 22.5634C28.6756 22.5092 29.1237 22.444 29.575 22.4184C30.4924 22.3666 30.789 22.2562 31.0696 21.8622C31.3106 21.5237 31.3229 20.8837 31.0943 20.5772C30.7374 20.0987 30.5792 20.0404 29.5892 20.0214C29.0361 20.0109 28.5376 20.043 28.3245 20.103ZM34.5771 20.1384C34.4267 20.2214 34.2245 20.4052 34.1277 20.5468L33.9519 20.8045V25.588V30.3716L34.1277 30.6293C34.4332 31.0768 34.7488 31.1944 35.523 31.1491C37.8901 31.0106 40.0012 29.2106 40.5561 26.8575C40.7043 26.2285 40.7036 24.9441 40.5544 24.3116C40.29 23.1901 39.5715 22.0387 38.6742 21.2986C37.7441 20.5314 36.6846 20.1111 35.4759 20.0298C34.9526 19.9946 34.806 20.0123 34.5771 20.1384ZM42.8188 20.1055C42.5024 20.249 42.1754 20.6479 42.119 20.9595C42.0939 21.098 42.0838 23.275 42.0963 25.7973C42.1188 30.289 42.1226 30.3879 42.2805 30.5992C42.5785 30.9983 42.8396 31.1372 43.2917 31.1372C43.7712 31.1372 44.0557 30.9708 44.3077 30.5428C44.43 30.3353 44.4726 30.0873 44.5031 29.4039L44.5422 28.5302L45.3238 29.6282C45.7536 30.2321 46.2031 30.8084 46.3225 30.909C47.1675 31.6204 48.5255 30.7096 48.1802 29.6633C48.1306 29.5133 47.4637 28.514 46.6982 27.4426L45.3061 25.4946L46.6992 23.6369C47.4654 22.6152 48.1323 21.6579 48.1812 21.5096C48.4373 20.7338 47.6938 19.8928 46.8702 20.0264C46.4332 20.0973 46.2713 20.2511 45.3714 21.4484L44.5205 22.5805L44.4916 21.7396C44.4601 20.8253 44.349 20.5151 43.9454 20.2143C43.6828 20.0185 43.1286 19.965 42.8188 20.1055ZM36.7014 22.8206C37.4694 23.2125 38.1055 24.1385 38.2712 25.1065C38.4347 26.0606 38.0886 27.1252 37.3868 27.8269C37.0812 28.1325 36.496 28.519 36.3388 28.519C36.3156 28.519 36.2966 27.2 36.2966 25.588C36.2966 23.976 36.3156 22.6571 36.3388 22.6571C36.362 22.6571 36.5251 22.7307 36.7014 22.8206ZM21.3685 29.9624V31.4841L20.5704 31.0938C20.1314 30.8792 19.6936 30.6296 19.5975 30.5393C19.343 30.3002 19.2969 29.9802 19.4669 29.6334C19.5887 29.3849 19.7377 29.276 20.4697 28.9002C20.9425 28.6574 21.3382 28.4547 21.349 28.4498C21.3597 28.4449 21.3685 29.1255 21.3685 29.9624ZM54.4899 29.5181C54.6794 29.8073 54.6462 30.2805 54.4195 30.524C54.2678 30.6869 52.8153 31.4889 52.672 31.4889C52.6497 31.4889 52.6315 30.8017 52.6315 29.9617V28.4344L53.4951 28.8761C54.0061 29.1375 54.4123 29.3996 54.4899 29.5181ZM27.0537 37.0272C35.6329 41.3144 35.3354 41.1898 37 41.1898C38.6646 41.1898 38.3671 41.3144 46.9463 37.0272C51.1494 34.9269 54.6051 33.2084 54.6259 33.2084C54.7028 33.2084 54.663 42.6473 54.5843 43.0624C54.472 43.6544 54.22 44.1318 53.7953 44.5569C53.4722 44.8803 52.5392 45.3689 46.0066 48.6353C41.9245 50.6764 38.3777 52.4078 38.1245 52.483C37.844 52.5663 37.4049 52.6197 37 52.6197C36.5951 52.6197 36.156 52.5663 35.8755 52.483C35.6223 52.4078 32.0755 50.6764 27.9934 48.6353C21.4608 45.3689 20.5278 44.8803 20.2047 44.5569C19.78 44.1318 19.528 43.6544 19.4157 43.0624C19.337 42.6473 19.2972 33.2084 19.3741 33.2084C19.3949 33.2084 22.8506 34.9269 27.0537 37.0272Z" fill="white"/>
<line x1="57.995" y1="14.1225" x2="13.995" y2="53.1225" stroke="white" stroke-width="3"/>
<defs>
<linearGradient id="paint0_linear_214_2" x1="36.0093" y1="0" x2="36.0093" y2="70" gradientUnits="userSpaceOnUse">
<stop stop-color="#CD96E5"/>
<stop offset="1" stop-color="#9D76FB"/>
</linearGradient>
</defs>
</svg>
