<svg width="71" height="70" viewBox="0 0 71 70" fill="none" xmlns="http://www.w3.org/2000/svg">
<rect width="70.8232" height="70" rx="35" fill="white"/>
<path fill-rule="evenodd" clip-rule="evenodd" d="M34.5823 15.1723C34.3674 15.2735 34.0616 15.5004 33.9028 15.6764C33.4666 16.1604 33.3709 16.5923 33.3709 18.0776C33.3709 19.5482 33.3798 19.5298 32.5113 19.8609C32.2319 19.9674 31.8001 20.1459 31.5517 20.2576C30.7702 20.6089 30.7159 20.5889 29.6119 19.5402C29.0789 19.034 28.5394 18.554 28.4131 18.4737C28.2708 18.3832 27.9806 18.313 27.6508 18.2894C26.7217 18.223 26.6105 18.2954 24.6888 20.2179C23.6608 21.2464 22.943 22.0286 22.8523 22.219C22.7468 22.4403 22.7033 22.7027 22.7033 23.1177C22.7033 23.9189 22.845 24.134 24.3634 25.6381C25.5207 26.7845 25.6259 26.869 25.897 26.869C26.2921 26.869 26.5718 26.591 26.5718 26.1984C26.5718 25.9325 26.4798 25.8183 25.3214 24.6464C23.6426 22.9481 23.6248 23.2249 25.5363 21.2994C26.3423 20.4876 27.1005 19.7713 27.2213 19.7077C27.5871 19.5151 27.8585 19.6727 28.8005 20.6254C30.1965 22.0371 30.6167 22.1411 32.2257 21.4728C33.7807 20.827 33.913 20.757 34.2295 20.4136C34.6825 19.9223 34.7776 19.5028 34.7776 17.9983C34.7776 16.7433 34.7787 16.7356 34.9792 16.5471L35.1808 16.3577L37.2786 16.3346C39.5731 16.3093 39.8905 16.3553 39.9682 16.7237C39.9892 16.8233 40.02 17.5026 40.0366 18.2333C40.0634 19.4143 40.0864 19.6028 40.2432 19.9308C40.4908 20.4487 40.9087 20.7932 41.6248 21.07C41.9638 21.201 42.4872 21.4227 42.7881 21.5628C43.246 21.7759 43.4307 21.8182 43.9213 21.8228C44.7195 21.8302 44.9408 21.7052 46.0705 20.6093C46.5863 20.1089 47.0856 19.6755 47.1802 19.6462C47.2809 19.6149 47.4428 19.641 47.571 19.7089C47.834 19.8483 50.5872 22.6123 50.7165 22.8667C50.7664 22.965 50.7831 23.1233 50.7537 23.2184C50.7242 23.3134 50.2906 23.8133 49.7902 24.3291C49.2898 24.8449 48.8129 25.4076 48.7302 25.5795C48.6476 25.7514 48.5654 26.107 48.5477 26.3698C48.5187 26.7986 48.5508 26.9304 48.8622 27.6592C49.0529 28.1057 49.3065 28.7076 49.4256 28.9967C49.5655 29.3361 49.7496 29.6193 49.9452 29.796C50.467 30.2675 50.6896 30.324 52.1662 30.3604C52.8969 30.3784 53.5762 30.4103 53.6758 30.4313C54.0443 30.509 54.0902 30.8264 54.065 33.1209L54.0419 35.2188L53.8524 35.4203C53.6639 35.6208 53.6563 35.6219 52.4012 35.6219C50.8967 35.6219 50.4772 35.7171 49.9859 36.17C49.6425 36.4865 49.5726 36.6189 48.9267 38.1738C48.2584 39.7829 48.3624 40.203 49.7742 41.599C50.7268 42.5411 50.8845 42.8124 50.6918 43.1782C50.6282 43.299 49.912 44.0573 49.1001 44.8632C47.1747 46.7747 47.4515 46.757 45.7531 45.0781C44.5484 43.8874 44.4734 43.8277 44.1793 43.8277C43.677 43.8277 43.37 44.2669 43.5616 44.7113C43.6938 45.0182 46.0444 47.3487 46.4221 47.5476C46.8066 47.75 47.7554 47.7498 48.1805 47.5472C48.3709 47.4565 49.1531 46.7387 50.1816 45.7107C52.1042 43.789 52.1765 43.6778 52.1101 42.7487C52.0869 42.4246 52.0156 42.1262 51.9281 41.9864C51.849 41.8601 51.369 41.3291 50.8616 40.8064C49.7738 39.686 49.7725 39.6817 50.2402 38.6147C50.4059 38.2367 50.5842 37.796 50.6366 37.6355C50.8171 37.0818 50.9681 37.0286 52.3579 37.0286C53.829 37.0286 54.2483 36.9312 54.7438 36.4745C54.9282 36.3045 55.1549 35.9894 55.2474 35.7742C55.4097 35.397 55.4149 35.2951 55.3931 32.904C55.373 30.7039 55.3546 30.3931 55.2301 30.1429C55.0267 29.7345 54.6453 29.3725 54.1982 29.1633C53.8365 28.9942 53.7077 28.9805 52.468 28.9798C51.3019 28.9791 51.1063 28.9611 50.9571 28.8403C50.7415 28.6658 50.01 26.9439 49.9599 26.4935L49.9225 26.1571L50.864 25.204C51.9332 24.1217 52.1237 23.8002 52.1237 23.0787C52.1237 22.2907 51.9776 22.0795 50.1882 20.2821C48.3672 18.4528 48.1083 18.2713 47.3251 18.2741C46.5991 18.2768 46.2772 18.4669 45.2038 19.5273C44.367 20.3539 44.2286 20.4605 43.9925 20.4598C43.6459 20.4587 41.7347 19.658 41.5572 19.4394C41.4389 19.2937 41.4204 19.0902 41.4197 17.9316C41.419 16.6919 41.4053 16.5631 41.2362 16.2014C41.0271 15.7543 40.665 15.3728 40.2567 15.1695C40.0059 15.0447 39.6976 15.0269 37.4739 15.0087C34.9898 14.9884 34.9704 14.9895 34.5823 15.1723ZM36.3797 24.3793C34.6568 24.5688 32.7151 25.4683 31.5148 26.633C31.1622 26.9752 31.1046 27.0726 31.1046 27.3272C31.1046 27.5352 31.1568 27.6703 31.2804 27.7816C31.6812 28.1423 31.8898 28.0874 32.6911 27.4106C34.2401 26.1022 36.1247 25.5147 38.1582 25.706C41.3015 26.0018 43.9379 28.361 44.5895 31.4611C44.7399 32.1766 44.7598 33.5943 44.6287 34.2571C44.352 35.656 43.8098 36.7581 42.8581 37.8558C42.6314 38.1173 42.4233 38.4213 42.3957 38.5312C42.3248 38.8141 42.5372 39.1821 42.8305 39.2844C43.179 39.406 43.4447 39.2669 43.931 38.7088C46.531 35.7246 46.7885 31.4227 44.5663 28.0963C44.0903 27.3838 43.0157 26.3093 42.3032 25.8332C41.088 25.0214 39.7005 24.5162 38.2881 24.3713C37.4051 24.2806 37.2709 24.2812 36.3797 24.3793ZM27.0016 28.3571C26.3506 28.5102 25.8641 28.8983 25.5858 29.487C25.4403 29.7946 25.4006 30.0108 25.3991 30.503C25.3981 30.8469 25.3538 31.2161 25.3007 31.3236C25.1817 31.5644 24.4408 31.9429 24.0814 31.9463C23.8684 31.9483 23.7277 31.8649 23.3418 31.5076C22.7365 30.9472 22.218 30.6999 21.6483 30.6999C20.9155 30.6999 20.5853 30.9186 19.2131 32.313C18.0786 33.4658 17.9797 33.5897 17.8573 34.0106C17.6227 34.8178 17.828 35.4691 18.5613 36.2436C18.787 36.4819 18.9947 36.7519 19.0228 36.8435C19.0831 37.0396 18.8233 37.7825 18.5916 38.0772C18.4504 38.2565 18.3772 38.279 17.9343 38.279C16.6552 38.279 15.8625 38.7217 15.5158 39.6297C15.4047 39.9204 15.3893 40.2403 15.4104 41.8015C15.438 43.8282 15.4481 43.8745 15.9849 44.4113C16.4175 44.8438 16.6799 44.941 17.5683 44.9979C18.2834 45.0436 18.3927 45.0705 18.5527 45.2396C18.8073 45.5086 19.0919 46.2278 19.0345 46.4568C19.0085 46.5602 18.7598 46.8926 18.4819 47.1956C17.7323 48.0122 17.5654 48.7676 17.9507 49.5978C18.1468 50.0203 20.2415 52.1224 20.7339 52.3908C21.0627 52.57 21.2381 52.6124 21.6521 52.6126C22.2876 52.6129 22.6867 52.4239 23.2895 51.8368C23.8246 51.3156 24.006 51.2661 24.5502 51.4924C25.2729 51.7929 25.3422 51.9018 25.4016 52.8313C25.4585 53.7196 25.5558 53.982 25.9883 54.4146C26.5251 54.9514 26.5713 54.9616 28.598 54.9891C30.1592 55.0103 30.4791 54.9948 30.7698 54.8837C31.6779 54.537 32.1205 53.7444 32.1205 52.4652C32.1205 52.0223 32.143 51.9491 32.3224 51.808C32.617 51.5762 33.3599 51.3165 33.556 51.3767C33.6476 51.4049 33.9176 51.6125 34.156 51.8382C34.9374 52.5781 35.5726 52.7789 36.3874 52.5435C36.8186 52.4189 36.9291 52.3307 38.0859 51.1864C38.7664 50.5133 39.3946 49.8245 39.4818 49.6556C39.569 49.4868 39.6589 49.1442 39.6815 48.8942C39.7391 48.26 39.5586 47.8361 38.9479 47.1706C38.523 46.7077 38.4511 46.5871 38.4532 46.3419C38.4566 45.9628 38.828 45.2214 39.076 45.0989C39.1834 45.0457 39.5527 45.001 39.8965 44.9995C40.8071 44.9952 41.3483 44.723 41.7754 44.054C42.0676 43.5962 42.1442 42.9778 42.1098 41.3545C42.0743 39.6828 42.0032 39.4176 41.4496 38.8885C41.0307 38.4881 40.6546 38.3525 39.8265 38.3032C39.4352 38.2799 39.042 38.2153 38.9527 38.1598C38.7643 38.0425 38.4507 37.2785 38.4507 36.9367C38.4507 36.757 38.559 36.5897 38.916 36.2179C39.4827 35.6278 39.6974 35.1856 39.6987 34.6059C39.7003 33.8651 39.4502 33.4675 38.1896 32.2068C36.8626 30.8798 36.4811 30.6531 35.6832 30.7172C35.0801 30.7656 34.8106 30.904 34.1842 31.4867C33.78 31.8627 33.638 31.9488 33.4217 31.9488C33.0887 31.9488 32.3094 31.6104 32.2135 31.4242C32.1741 31.3473 32.1219 30.9643 32.0979 30.573C32.0467 29.7442 31.9109 29.3683 31.511 28.9499C30.9667 28.3803 30.7329 28.3219 28.9163 28.3016C28.0352 28.2917 27.1736 28.3167 27.0016 28.3571ZM30.3531 29.7707C30.6142 29.8897 30.6978 30.1449 30.7336 30.9328C30.7841 32.0441 31.1726 32.5882 32.2448 33.0492C32.751 33.2669 32.962 33.3152 33.41 33.3157C34.0886 33.3166 34.3962 33.1751 35.0551 32.5587C35.4698 32.1707 35.5829 32.1051 35.8368 32.1051C36.114 32.1051 36.2049 32.1764 37.214 33.1855C38.2225 34.194 38.2944 34.2856 38.2944 34.5622C38.2944 34.8132 38.2284 34.9299 37.863 35.3244C37.24 35.9975 37.0876 36.3251 37.0885 36.9895C37.089 37.4354 37.1379 37.6509 37.3526 38.1548C37.8091 39.2259 38.3541 39.6154 39.4667 39.666C40.2546 39.7018 40.5099 39.7853 40.6288 40.0464C40.6845 40.1685 40.7171 40.7858 40.7171 41.717C40.7171 43.1474 40.7114 43.2004 40.5365 43.4038C40.3692 43.5984 40.2963 43.6177 39.5401 43.6677C38.2908 43.7504 37.9047 44.0097 37.382 45.1175C37.1229 45.6665 37.087 45.8136 37.0866 46.3286C37.0862 47.0346 37.1898 47.2592 37.8366 47.9531C38.2266 48.3716 38.2944 48.4879 38.2944 48.738C38.2944 49.0122 38.22 49.1056 37.1748 50.1419C35.8114 51.4937 35.8141 51.4929 35.0451 50.7775C34.1276 49.924 33.485 49.7999 32.3314 50.2538C31.1725 50.7099 30.7138 51.3723 30.7138 52.5902C30.7138 53.1189 30.6895 53.2254 30.5253 53.4164L30.3369 53.6357L28.9435 53.6619C27.2892 53.6932 27.0038 53.6362 26.8392 53.2425C26.7781 53.0961 26.7281 52.7419 26.7281 52.4554C26.7281 51.3464 26.3045 50.7483 25.1843 50.2757C24.5657 50.0148 24.4489 49.9906 23.9537 50.021C23.2915 50.0617 23.0784 50.1657 22.4024 50.7783C21.6152 51.4917 21.6225 51.4939 20.2641 50.1354C18.9057 48.777 18.9079 48.7843 19.6212 47.9972C20.2338 47.3212 20.3379 47.108 20.3785 46.4458C20.409 45.9506 20.3848 45.8339 20.1238 45.2152C19.6512 44.095 19.0531 43.6714 17.9441 43.6714C17.6576 43.6714 17.3034 43.6214 17.157 43.5603C16.7633 43.3957 16.7063 43.1103 16.7376 41.456L16.7639 40.0627L16.9832 39.8742C17.1742 39.71 17.2806 39.6857 17.8094 39.6857C19.0272 39.6857 19.6897 39.2271 20.1458 38.0681C20.6001 36.9135 20.4659 36.227 19.6127 35.3384C18.898 34.5941 18.9024 34.5799 20.2601 33.2198C21.2939 32.1841 21.3934 32.1051 21.6639 32.1051C21.9111 32.1051 22.0295 32.1744 22.4465 32.563C23.0426 33.1186 23.3371 33.2774 23.8737 33.3328C24.3196 33.3788 24.8268 33.2472 25.5168 32.9065C26.3866 32.4769 26.6547 32.0253 26.7319 30.8594C26.7819 30.1033 26.8012 30.0303 26.9958 29.863C27.1991 29.6881 27.2522 29.6824 28.6826 29.6824C29.6137 29.6824 30.231 29.715 30.3531 29.7707ZM27.7831 35.734C26.4533 35.955 25.5273 36.4353 24.533 37.4194C23.7719 38.1727 23.3249 38.8711 23.0073 39.803C22.7038 40.6939 22.6525 42.1058 22.8891 43.0528C23.5715 45.7839 25.9464 47.6606 28.7139 47.6558C30.0567 47.6535 30.9889 47.3696 32.1632 46.6056C32.5091 46.3806 32.9941 45.9992 33.241 45.7581C34.4028 44.6239 35.0305 42.0647 34.5866 40.2719C34.3987 39.5131 33.8483 38.4116 33.3655 37.8283C32.0566 36.2471 29.7965 35.3992 27.7831 35.734ZM29.7691 37.149C31.7449 37.6147 33.1899 39.303 33.346 41.3285C33.4101 42.1596 33.2663 42.8673 32.8611 43.7146C32.2493 44.9941 31.0513 45.9101 29.6034 46.2056C28.8746 46.3544 28.6663 46.3551 27.8641 46.2122C25.7437 45.8344 24.0737 43.8369 24.0737 41.6786C24.0737 40.7343 24.5307 39.4568 25.1221 38.7479C26.2646 37.3785 28.0851 36.7521 29.7691 37.149Z" fill="black"/>
</svg>
