<svg width="72" height="70" viewBox="0 0 72 70" fill="none" xmlns="http://www.w3.org/2000/svg">
<rect x="0.598145" width="70.8232" height="70" rx="35" fill="url(#paint0_linear_214_8)"/>
<path fill-rule="evenodd" clip-rule="evenodd" d="M29.6766 15.0722C23.9432 15.4803 19.2511 16.9486 17.2447 18.9627C16.6722 19.5374 16.3536 20.0321 16.141 20.6764C16.0143 21.0604 15.9992 21.4122 16 23.9665C16.0009 26.9409 16.0207 27.1568 16.3539 27.8152C16.4269 27.9592 16.5703 28.1891 16.6727 28.3259C16.9041 28.6352 16.9044 28.7059 16.6751 29.0077C16.574 29.1407 16.4279 29.3726 16.3502 29.5231C16.0003 30.2022 16.001 30.1825 16.0001 38.0887C15.9992 45.1354 16.0079 45.6256 16.141 46.0291C16.6487 47.5681 18.1891 48.8431 20.721 49.8202C24.2252 51.1724 28.5316 51.7943 33.7017 51.6947C35.9077 51.6522 37.4072 51.5408 38.997 51.301L39.6812 51.1978L40.0063 51.6192C40.4477 52.1914 41.3753 53.046 42.0204 53.4748C43.6762 54.5756 45.3817 55.0546 47.3791 54.9798C49.7302 54.8918 51.6786 54.0358 53.3638 52.3506C55.0494 50.665 55.9055 48.716 55.9925 46.3659C56.0679 44.3331 55.5746 42.5991 54.4415 40.913C54.022 40.2889 52.7558 39.0217 52.1345 38.6041C51.5534 38.2136 50.3956 37.6266 49.9387 37.4908L49.6066 37.3921L49.6083 35.9782L49.6099 34.5642L50.0481 34.2516C50.6819 33.7993 51.2938 33.088 51.6242 32.4195L51.9122 31.8367V28.6673V25.498L51.6713 24.99C51.3599 24.3333 50.7792 23.6405 50.1301 23.1517L49.6137 22.7625L49.6102 21.9344C49.6045 20.6381 49.294 19.8992 48.3611 18.9627C46.3252 16.919 41.6798 15.4814 35.7728 15.067C34.4672 14.9754 30.9953 14.9783 29.6766 15.0722ZM34.7768 17.4084C36.3705 17.4858 37.9475 17.642 39.1726 17.8438C43.7103 18.5911 47.2051 20.2381 47.2051 21.6292C47.2051 22.2802 46.4761 22.9731 45.0344 23.6927C39.8528 26.279 29.0751 26.651 22.4862 24.4709C20.6343 23.8583 19.1723 23.0257 18.6359 22.2786C18.0126 21.4104 18.6414 20.529 20.5713 19.5657C23.7587 17.9748 29.2542 17.1402 34.7768 17.4084ZM49.5666 31.0655C49.4321 32.0049 47.9193 33.0311 45.4643 33.8478C39.7535 35.7478 30.6163 35.7508 24.8403 33.8544C23.0055 33.2521 21.4848 32.3874 20.9806 31.66C20.6193 31.1387 20.6772 31.0707 21.2987 31.2869C24.3122 32.3348 27.6698 32.8576 31.9041 32.9378C34.304 32.9833 35.9775 32.9124 37.9221 32.6828C41.8922 32.2141 45.1692 31.226 47.301 29.8548C48.3405 29.1861 49.2923 28.0279 49.5004 27.1784C49.5792 26.8569 49.6418 30.5393 49.5666 31.0655ZM20.5713 40.3914C21.9646 40.9477 24.1587 41.5317 25.9642 41.8267C29.6013 42.4211 34.1688 42.51 37.9098 42.0593C38.4619 41.9928 38.9244 41.9498 38.9377 41.9638C38.951 41.9777 38.8444 42.2704 38.7007 42.6143C38.5572 42.9582 38.3809 43.4773 38.3091 43.7679C38.1601 44.3704 38.2352 44.3286 37.0866 44.4493C33.803 44.7942 29.5373 44.6833 26.4331 44.1722C22.648 43.5492 19.5421 42.2983 18.6315 41.0301C18.4159 40.7299 18.3885 40.6257 18.3582 39.9917L18.3245 39.287L19.1353 39.7143C19.5812 39.9494 20.2274 40.2541 20.5713 40.3914ZM48.6687 39.6161C50.9873 40.2015 52.8174 42.0402 53.4421 44.4119C53.5675 44.8878 53.6068 45.2706 53.6068 46.0142C53.6068 46.7577 53.5675 47.1405 53.4421 47.6164C52.8136 50.0028 51.0161 51.8003 48.6296 52.4289C48.1537 52.5542 47.771 52.5935 47.0274 52.5935C46.2838 52.5935 45.9011 52.5542 45.4252 52.4289C43.0388 51.8003 41.2412 50.0028 40.6127 47.6164C40.4873 47.1405 40.448 46.7577 40.448 46.0142C40.448 45.2706 40.4873 44.8878 40.6127 44.4119C41.5555 40.8324 45.1085 38.7173 48.6687 39.6161ZM48.0431 44.725C46.8187 45.9498 45.7821 46.952 45.7395 46.952C45.6968 46.952 45.2388 46.5299 44.7217 46.0141L43.7814 45.076L42.9428 45.9173L42.1042 46.7585L43.9215 48.5746L45.7388 50.3907L48.8455 47.2833L51.9522 44.1758L51.1107 43.3368L50.2691 42.4979L48.0431 44.725Z" fill="white"/>
<defs>
<linearGradient id="paint0_linear_214_8" x1="36.0098" y1="0" x2="36.0098" y2="70" gradientUnits="userSpaceOnUse">
<stop stop-color="#CD96E5"/>
<stop offset="1" stop-color="#9D76FB"/>
</linearGradient>
</defs>
</svg>
