<svg width="783" height="439" viewBox="0 0 783 439" fill="none" xmlns="http://www.w3.org/2000/svg">
<path d="M643.176 271.716C719.923 329.549 669.267 390.29 530.032 407.386C390.797 424.482 215.709 391.458 138.963 333.625C62.2156 275.792 112.872 215.051 252.107 197.955C391.341 180.859 566.429 213.883 643.176 271.716Z" fill="url(#paint0_linear_160_70)" fill-opacity="0.1"/>
<path d="M277.479 249.893L294.203 271.667L323.68 262.381L304.539 285.125L321.262 306.899L292.709 299.181L273.568 321.925L275.062 294.411L246.509 286.693L275.985 277.407L277.479 249.893Z" fill="#A051E0" fill-opacity="0.2"/>
<path fill-rule="evenodd" clip-rule="evenodd" d="M418.917 1.49407C414.17 2.26339 404.182 3.77001 396.722 4.84346C389.262 5.9159 375.112 7.96875 365.278 9.40335C355.444 10.8389 341.572 12.8618 334.451 13.8982C327.33 14.9346 316.787 16.4773 311.023 17.3266C305.258 18.177 292.218 20.0568 282.045 21.5044C271.872 22.952 262.3 24.5166 260.774 24.9798L258 25.8222V166.847C258 271.287 258.365 308.054 259.404 308.575C260.692 309.221 277.965 311.871 323.97 318.481C333.465 319.845 350.389 322.298 361.579 323.931C372.769 325.563 392.882 328.498 406.274 330.451C419.666 332.402 431.18 334 431.861 334C432.682 334 433.098 283.958 433.098 184.915V35.8303L454.985 36.1034L476.872 36.3765L477.185 172.717L477.497 309.058L490.749 308.774L504 308.489V161.428V14.3674L468.549 14.1023L433.098 13.8362V6.84929C433.098 -1.20805 433.846 -0.925937 418.917 1.49407ZM404.75 157.433C411.802 160.391 412.805 171.788 406.374 175.891C401.844 178.783 398.102 178.46 394.365 174.857C387.513 168.251 391.125 157.649 400.791 155.989C400.993 155.955 402.776 156.604 404.75 157.433Z" fill="url(#paint1_linear_160_70)"/>
<g filter="url(#filter0_d_160_70)">
<g filter="url(#filter1_d_160_70)">
<path fill-rule="evenodd" clip-rule="evenodd" d="M318.318 224.372L286.956 261.273L289.947 263.996L292.938 266.72L322.023 232.514L351.108 198.309L354.27 201.278L357.43 204.248L328.486 238.304L299.542 272.36L302.783 274.8L306.025 277.239L324.718 255.237L343.411 233.234L350.37 239.739L357.33 246.242L359.966 243.237C362.459 240.395 362.524 240.153 361.18 238.758C359.83 237.356 359.999 236.997 364.549 231.596C369.074 226.224 369.425 225.981 370.872 227.211C372.311 228.433 372.563 228.331 375.033 225.515L377.661 222.518L370.715 215.959L363.767 209.398L366.163 206.49L368.56 203.58L359.908 195.481C355.149 191.026 350.902 187.402 350.469 187.426C350.036 187.451 335.568 204.077 318.318 224.372ZM358.633 226.056L353.791 231.803L351.259 229.424L348.727 227.046L353.569 221.298L358.411 215.551L360.943 217.93L363.475 220.308L358.633 226.056ZM290.152 228.929L287.755 231.84L290.706 234.527L293.658 237.213L296.293 234.21L298.928 231.206L296.224 228.585C294.736 227.142 293.3 225.975 293.034 225.99C292.768 226.005 291.471 227.327 290.152 228.929ZM275.933 234.946L273.364 238.066L276.318 240.841L279.272 243.616L281.841 240.496L284.411 237.376L281.457 234.601L278.503 231.826L275.933 234.946ZM329.237 265.993L327.068 268.657L330.018 271.429L332.968 274.2L335.52 271.102L338.073 268.002L335.638 265.614C332.601 262.637 331.936 262.677 329.237 265.993ZM325.73 281.725L323.16 284.844L326.114 287.619L329.068 290.394L331.638 287.274L334.208 284.155L331.254 281.38L328.3 278.605L325.73 281.725Z" fill="url(#paint2_linear_160_70)"/>
</g>
<g clip-path="url(#clip0_160_70)">
<g filter="url(#filter2_d_160_70)">
<path d="M338.688 240.527C335.915 243.648 333.345 246.55 330.767 249.442C303.594 279.905 276.423 310.369 249.221 340.805C248.788 341.289 247.981 341.644 247.328 341.679C245.294 341.79 243.25 341.718 241.001 341.718C241.001 341.148 241.001 340.676 241.001 340.203C241.003 332.89 240.986 325.578 241.039 318.266C241.044 317.582 241.328 316.762 241.759 316.239C262.359 291.301 282.985 266.386 303.639 241.495C304.06 240.988 304.844 240.493 305.462 240.49C316.168 240.431 326.875 240.452 337.581 240.458C337.839 240.458 338.098 240.489 338.688 240.527H338.688Z" fill="url(#paint3_linear_160_70)"/>
<path d="M341 341.669C340.364 341.702 339.979 341.741 339.594 341.741C328.672 341.741 317.749 341.721 306.827 341.757C305.811 341.76 305.241 341.443 304.7 340.577C298.473 330.609 292.205 320.668 285.942 310.723C285.577 310.144 285.225 309.714 285.876 308.993C292.388 301.764 298.857 294.496 305.341 287.242C305.426 287.147 305.542 287.081 305.77 286.902C317.477 305.1 329.165 323.271 341.001 341.669H341Z" fill="url(#paint4_linear_160_70)"/>
<path d="M241.097 240.493C251.015 240.496 260.812 240.498 270.72 240.501C270.743 240.991 270.782 241.425 270.782 241.859C270.783 251.319 270.796 260.779 270.745 270.238C270.741 270.962 270.445 271.83 269.989 272.384C260.718 283.662 251.403 294.904 242.094 306.151C241.825 306.476 241.527 306.776 241.082 307.263C241.087 284.885 241.093 262.766 241.098 240.493H241.097Z" fill="url(#paint5_linear_160_70)"/>
<path d="M270.695 326.041C270.694 331.466 270.693 336.512 270.692 341.642C266.12 341.641 261.618 341.64 256.768 341.638C261.453 336.391 265.986 331.314 270.695 326.041Z" fill="url(#paint6_linear_160_70)"/>
</g>
</g>
<path d="M463.424 65.5612C463.423 65.7445 463.356 65.9026 463.222 66.0354C463.088 66.1682 462.93 66.2342 462.746 66.2335L446.597 66.1704C446.413 66.1697 446.255 66.1024 446.122 65.9685C445.99 65.8347 445.923 65.6761 445.924 65.4928L445.94 61.4678C445.941 61.0678 446.118 60.7351 446.469 60.4698L453.44 55.0471L446.64 55.0205C446.457 55.0198 446.299 54.9525 446.166 54.8186C446.033 54.6848 445.967 54.5262 445.968 54.3428L445.986 49.6929C445.987 49.5095 446.054 49.3515 446.188 49.2187C446.322 49.0859 446.48 49.0198 446.664 49.0205L462.813 49.0837C462.997 49.0844 463.155 49.1517 463.288 49.2855C463.42 49.4194 463.487 49.578 463.486 49.7613L463.47 53.8113C463.468 54.2113 463.3 54.5356 462.966 54.7843L455.42 60.2048L462.77 60.2336C462.953 60.2343 463.111 60.3016 463.244 60.4354C463.377 60.5693 463.443 60.7279 463.442 60.9112L463.424 65.5612ZM453.06 88.2361C450.51 88.2261 448.63 87.3687 447.42 85.664C446.21 83.9759 445.611 81.7236 445.622 78.9069C445.633 76.0903 446.25 73.8343 447.473 72.1391C448.696 70.4605 450.6 69.6263 453.183 69.6364L456.133 69.6479C457.833 69.6546 459.24 70.0601 460.353 70.8644C461.483 71.6855 462.312 72.7971 462.84 74.1992C463.368 75.6013 463.629 77.194 463.622 78.9773C463.615 80.7606 463.342 82.3429 462.803 83.7241C462.264 85.122 461.435 86.2271 460.315 87.0394C459.195 87.8517 457.794 88.2546 456.11 88.248L453.06 88.2361ZM452.632 76.3843C451.948 76.3816 451.422 76.6046 451.054 77.0531C450.686 77.5184 450.5 78.1426 450.497 78.926C450.494 79.7093 450.675 80.3267 451.039 80.7781C451.421 81.2463 451.953 81.4817 452.637 81.4844L456.587 81.4998C457.27 81.5025 457.796 81.2712 458.164 80.806C458.55 80.3575 458.744 79.7415 458.747 78.9582C458.75 78.1749 458.569 77.5492 458.204 77.0811C457.839 76.6297 457.315 76.4026 456.632 76.3999L452.632 76.3843ZM462.518 124.729C462.967 124.981 463.19 125.34 463.189 125.806L463.171 130.381C463.17 130.565 463.103 130.723 462.969 130.856C462.835 130.988 462.676 131.054 462.493 131.054L446.343 130.991C446.16 130.99 446.002 130.923 445.869 130.789C445.736 130.655 445.67 130.496 445.671 130.313L445.688 125.788C445.689 125.605 445.756 125.447 445.89 125.314C446.024 125.181 446.183 125.115 446.366 125.116L454.116 125.146L450.523 123.307C450.407 123.256 450.274 123.139 450.125 122.955C449.975 122.771 449.901 122.538 449.902 122.254L449.909 120.554C449.91 120.271 449.986 120.038 450.137 119.855C450.287 119.673 450.421 119.556 450.538 119.507L454.145 117.696L446.395 117.666C446.212 117.665 446.054 117.598 445.921 117.464C445.788 117.33 445.722 117.171 445.723 116.988L445.741 112.463C445.741 112.28 445.809 112.122 445.942 111.989C446.076 111.856 446.235 111.79 446.418 111.791L462.568 111.854C462.751 111.855 462.909 111.922 463.042 112.056C463.175 112.19 463.241 112.348 463.24 112.532L463.223 117.106C463.221 117.573 462.994 117.931 462.543 118.179L456.531 121.43L462.518 124.729ZM452.811 151.956C450.261 151.946 448.381 151.089 447.171 149.384C445.961 147.696 445.362 145.444 445.373 142.627C445.384 139.81 446.001 137.555 447.224 135.859C448.447 134.181 450.351 133.347 452.934 133.357L455.884 133.368C457.584 133.375 458.991 133.78 460.104 134.585C461.234 135.406 462.063 136.517 462.591 137.919C463.119 139.321 463.38 140.914 463.373 142.697C463.366 144.481 463.093 146.063 462.554 147.444C462.015 148.842 461.186 149.947 460.066 150.76C458.946 151.572 457.545 151.975 455.861 151.968L452.811 151.956ZM452.383 140.105C451.699 140.102 451.173 140.325 450.805 140.773C450.436 141.239 450.251 141.863 450.248 142.646C450.245 143.43 450.425 144.047 450.79 144.498C451.172 144.966 451.704 145.202 452.388 145.205L456.338 145.22C457.021 145.223 457.547 144.991 457.915 144.526C458.3 144.078 458.495 143.462 458.498 142.678C458.501 141.895 458.32 141.269 457.955 140.801C457.59 140.35 457.066 140.123 456.383 140.12L452.383 140.105ZM446.276 173.796C446.209 173.829 446.134 173.846 446.051 173.845C445.901 173.845 445.768 173.786 445.651 173.669C445.552 173.568 445.502 173.443 445.503 173.293L445.525 167.618C445.526 167.385 445.585 167.168 445.703 166.969C445.82 166.786 445.97 166.653 446.154 166.571L451.113 164.39L451.121 162.29L446.221 162.271C446.038 162.27 445.879 162.203 445.747 162.069C445.614 161.935 445.548 161.777 445.549 161.593L445.57 156.193C445.57 156.01 445.638 155.852 445.772 155.719C445.905 155.586 446.064 155.52 446.247 155.521L462.397 155.584C462.58 155.585 462.739 155.652 462.871 155.786C463.004 155.92 463.07 156.078 463.07 156.262L463.032 165.987C463.026 167.487 462.779 168.794 462.291 169.909C461.803 171.04 461.1 171.904 460.181 172.5C459.262 173.097 458.186 173.393 456.953 173.388C454.686 173.379 453.048 172.498 452.038 170.744L446.276 173.796ZM455.734 165.433C455.732 165.8 455.848 166.083 456.08 166.284C456.33 166.485 456.637 166.587 457.004 166.588C457.371 166.589 457.688 166.491 457.955 166.292C458.239 166.11 458.382 165.827 458.384 165.443L458.396 162.318L455.746 162.308L455.734 165.433ZM450.3 193.227C450.299 193.411 450.232 193.569 450.098 193.701C449.964 193.834 449.806 193.9 449.622 193.9L446.097 193.886C445.914 193.885 445.756 193.818 445.623 193.684C445.49 193.55 445.424 193.392 445.425 193.208L445.487 177.408C445.487 177.225 445.555 177.067 445.689 176.934C445.822 176.801 445.981 176.735 446.164 176.736L462.314 176.799C462.498 176.8 462.656 176.867 462.788 177.001C462.921 177.135 462.987 177.293 462.987 177.477L462.926 193.027C462.925 193.21 462.858 193.368 462.724 193.501C462.59 193.634 462.432 193.7 462.248 193.699L458.723 193.685C458.54 193.684 458.382 193.617 458.249 193.483C458.116 193.349 458.05 193.191 458.051 193.008L458.089 183.283L456.514 183.276L456.481 191.626C456.481 191.81 456.413 191.968 456.279 192.101C456.146 192.233 455.987 192.299 455.804 192.299L452.554 192.286C452.37 192.285 452.212 192.218 452.079 192.084C451.947 191.95 451.881 191.792 451.881 191.608L451.914 183.258L450.339 183.252L450.3 193.227ZM456.435 229.007C456.228 230.84 455.897 232.305 455.443 233.403C454.989 234.518 454.394 235.324 453.658 235.821C452.923 236.318 452.006 236.565 450.906 236.56C449.706 236.556 448.657 236.16 447.76 235.373C446.88 234.603 446.201 233.534 445.723 232.165C445.261 230.797 445.034 229.237 445.041 227.487C445.049 225.537 445.297 223.888 445.785 222.54C446.274 221.192 446.92 220.186 447.722 219.523C448.541 218.859 449.434 218.53 450.401 218.533C450.568 218.534 450.701 218.584 450.8 218.685C450.9 218.802 450.949 218.944 450.949 219.11L450.929 224.235C450.927 224.585 450.818 224.868 450.6 225.084C450.333 225.366 450.148 225.682 450.047 226.032C449.962 226.382 449.918 226.873 449.916 227.506C449.91 229.09 450.148 229.882 450.632 229.884C450.832 229.885 450.999 229.777 451.133 229.561C451.284 229.362 451.41 228.996 451.512 228.463C451.631 227.947 451.751 227.18 451.871 226.164C452.147 223.882 452.72 222.134 453.592 220.921C454.48 219.708 455.724 219.104 457.324 219.11C458.457 219.115 459.456 219.46 460.32 220.147C461.184 220.834 461.855 221.803 462.333 223.055C462.812 224.324 463.048 225.791 463.041 227.458C463.034 229.191 462.754 230.707 462.198 232.005C461.66 233.302 460.989 234.291 460.187 234.972C459.384 235.652 458.6 235.99 457.833 235.987C457.666 235.987 457.533 235.928 457.434 235.811C457.334 235.711 457.284 235.569 457.285 235.385L457.306 230.01C457.307 229.727 457.408 229.469 457.609 229.237C457.777 229.054 457.911 228.838 458.012 228.588C458.113 228.339 458.164 227.955 458.166 227.439C458.171 226.322 457.939 225.763 457.473 225.761C457.223 225.76 457.022 225.976 456.87 226.409C456.735 226.841 456.59 227.708 456.435 229.007ZM462.708 248.822C462.697 251.639 462.08 253.886 460.856 255.565C459.633 257.26 457.746 258.103 455.196 258.093L452.646 258.083C450.046 258.072 448.15 257.223 446.956 255.535C445.78 253.864 445.197 251.603 445.208 248.753L445.239 240.779C445.24 240.595 445.307 240.437 445.441 240.304C445.575 240.172 445.733 240.105 445.917 240.106L462.067 240.169C462.25 240.17 462.408 240.237 462.541 240.371C462.674 240.505 462.74 240.664 462.739 240.847L462.708 248.822ZM450.082 248.898C450.079 249.681 450.26 250.298 450.625 250.75C451.007 251.218 451.539 251.453 452.222 251.456L455.672 251.469C456.356 251.472 456.882 251.241 457.25 250.776C457.635 250.327 457.829 249.711 457.832 248.928L457.841 246.653L450.091 246.623L450.082 248.898ZM445.959 280.397C445.859 280.463 445.75 280.496 445.634 280.496C445.484 280.495 445.351 280.436 445.234 280.319C445.135 280.219 445.085 280.093 445.086 279.943L445.111 273.494C445.113 273.11 445.247 272.811 445.515 272.595L450.907 268.266L445.807 268.246C445.623 268.245 445.465 268.178 445.332 268.044C445.2 267.91 445.134 267.752 445.134 267.569L445.154 262.419C445.155 262.235 445.222 262.077 445.356 261.944C445.49 261.812 445.649 261.746 445.832 261.746L461.982 261.809C462.165 261.81 462.323 261.877 462.456 262.011C462.589 262.145 462.655 262.304 462.654 262.487L462.634 267.637C462.633 267.82 462.566 267.978 462.432 268.111C462.298 268.244 462.14 268.31 461.957 268.309L457.257 268.291L462.191 272.26C462.473 272.511 462.614 272.82 462.612 273.187L462.589 279.212C462.588 279.362 462.53 279.487 462.412 279.586C462.312 279.702 462.187 279.76 462.037 279.76C461.903 279.759 461.787 279.717 461.687 279.633L454.485 273.68L445.959 280.397ZM456.186 292.727C455.979 294.56 455.648 296.025 455.194 297.123C454.739 298.238 454.145 299.044 453.409 299.541C452.674 300.039 451.756 300.285 450.656 300.281C449.456 300.276 448.408 299.88 447.511 299.093C446.631 298.323 445.952 297.254 445.474 295.885C445.012 294.517 444.785 292.958 444.792 291.208C444.8 289.258 445.048 287.609 445.536 286.261C446.025 284.912 446.67 283.907 447.473 283.243C448.292 282.58 449.185 282.25 450.152 282.254C450.319 282.254 450.452 282.305 450.551 282.405C450.651 282.522 450.7 282.664 450.7 282.831L450.68 287.956C450.678 288.306 450.569 288.589 450.351 288.804C450.084 289.087 449.899 289.403 449.798 289.752C449.713 290.102 449.669 290.593 449.667 291.227C449.661 292.81 449.899 293.603 450.383 293.605C450.583 293.605 450.75 293.498 450.884 293.281C451.035 293.082 451.161 292.716 451.263 292.183C451.382 291.667 451.501 290.901 451.622 289.884C451.898 287.602 452.471 285.854 453.343 284.641C454.231 283.428 455.475 282.824 457.075 282.831C458.208 282.835 459.207 283.181 460.071 283.867C460.935 284.554 461.606 285.523 462.084 286.775C462.563 288.044 462.799 289.511 462.792 291.178C462.785 292.911 462.504 294.427 461.949 295.725C461.411 297.023 460.74 298.012 459.938 298.692C459.135 299.372 458.35 299.711 457.584 299.708C457.417 299.707 457.284 299.648 457.184 299.531C457.085 299.431 457.035 299.289 457.036 299.106L457.057 293.731C457.058 293.447 457.159 293.189 457.36 292.957C457.528 292.774 457.662 292.558 457.763 292.308C457.864 292.059 457.915 291.676 457.917 291.159C457.922 290.042 457.69 289.483 457.224 289.481C456.974 289.48 456.773 289.696 456.621 290.129C456.486 290.562 456.341 291.428 456.186 292.727Z" fill="white"/>
</g>
<path fill-rule="evenodd" clip-rule="evenodd" d="M619.097 288.439C617.374 290.768 615.476 292.418 612.819 293.897C606.754 297.274 599.115 297.646 591.638 294.93C589.852 294.281 589.289 293.979 581.368 289.431L572.988 284.618L571.797 286.662C570.101 289.572 569.081 290.258 566.843 289.997L565.811 289.877L548.474 279.769L531.136 269.661L530.536 268.872C529.809 267.917 529.529 267.056 529.598 265.983C529.649 265.194 529.925 264.702 543.13 241.93C555.529 220.547 556.654 218.655 557.165 218.331C557.982 217.814 559.395 217.519 560.393 217.657C561.265 217.777 561.33 217.814 578.638 227.905L596.009 238.032L596.617 238.822C597.287 239.693 597.602 240.699 597.549 241.804C597.516 242.491 597.01 243.392 587.277 260.096L577.04 277.667L585.31 282.486C593.024 286.981 593.68 287.338 595.058 287.796C600.457 289.59 606.065 288.627 609.973 285.234C611.253 284.123 612.851 281.627 613.386 279.899C614.91 274.986 613.278 269.43 609.013 265.012C608.025 263.989 607.55 263.636 605.09 262.097C601.973 260.145 601.6 259.776 601.432 258.467C601.352 257.852 601.437 257.638 602.452 255.897C603.467 254.156 603.612 253.975 604.191 253.735C604.539 253.59 605.228 253.513 605.723 253.562C606.596 253.65 606.706 253.705 609.426 255.391C614.448 258.504 617.233 261.292 619.776 265.754C623.964 273.102 623.691 282.231 619.097 288.439ZM573.083 258.259C573.437 257.17 573.424 256.159 573.042 254.94C572.558 253.399 571.812 252.47 570.258 251.471C568.572 250.389 567.309 250.091 565.529 250.355L564.281 250.54L560.875 248.102C557.881 245.958 557.403 245.657 556.921 245.607C556.62 245.576 556.27 245.626 556.144 245.718C556.018 245.81 555.207 247.099 554.342 248.582C552.781 251.262 552.771 251.284 552.96 251.847C553.065 252.159 553.243 252.466 553.357 252.531C553.47 252.595 555.251 253.429 557.314 254.384L561.064 256.121L561.448 257.152C561.937 258.464 562.606 259.392 563.663 260.226C566.27 262.282 570.155 262.217 572.02 260.085C572.73 259.273 572.782 259.184 573.083 258.259Z" fill="url(#paint7_linear_160_70)"/>
<defs>
<filter id="filter0_d_160_70" x="236" y="49.017" width="230.738" height="300.74" filterUnits="userSpaceOnUse" color-interpolation-filters="sRGB">
<feFlood flood-opacity="0" result="BackgroundImageFix"/>
<feColorMatrix in="SourceAlpha" type="matrix" values="0 0 0 0 0 0 0 0 0 0 0 0 0 0 0 0 0 0 127 0" result="hardAlpha"/>
<feOffset dx="-1" dy="4"/>
<feGaussianBlur stdDeviation="2"/>
<feComposite in2="hardAlpha" operator="out"/>
<feColorMatrix type="matrix" values="0 0 0 0 0.152941 0 0 0 0 0.0470588 0 0 0 0 0.254902 0 0 0 1 0"/>
<feBlend mode="normal" in2="BackgroundImageFix" result="effect1_dropShadow_160_70"/>
<feBlend mode="normal" in="SourceGraphic" in2="effect1_dropShadow_160_70" result="shape"/>
</filter>
<filter id="filter1_d_160_70" x="269.363" y="183.426" width="112.298" height="110.968" filterUnits="userSpaceOnUse" color-interpolation-filters="sRGB">
<feFlood flood-opacity="0" result="BackgroundImageFix"/>
<feColorMatrix in="SourceAlpha" type="matrix" values="0 0 0 0 0 0 0 0 0 0 0 0 0 0 0 0 0 0 127 0" result="hardAlpha"/>
<feOffset/>
<feGaussianBlur stdDeviation="2"/>
<feComposite in2="hardAlpha" operator="out"/>
<feColorMatrix type="matrix" values="0 0 0 0 0.294118 0 0 0 0 0.145098 0 0 0 0 0.454902 0 0 0 0.21 0"/>
<feBlend mode="normal" in2="BackgroundImageFix" result="effect1_dropShadow_160_70"/>
<feBlend mode="normal" in="SourceGraphic" in2="effect1_dropShadow_160_70" result="shape"/>
</filter>
<filter id="filter2_d_160_70" x="237" y="236.45" width="108.001" height="109.307" filterUnits="userSpaceOnUse" color-interpolation-filters="sRGB">
<feFlood flood-opacity="0" result="BackgroundImageFix"/>
<feColorMatrix in="SourceAlpha" type="matrix" values="0 0 0 0 0 0 0 0 0 0 0 0 0 0 0 0 0 0 127 0" result="hardAlpha"/>
<feOffset/>
<feGaussianBlur stdDeviation="2"/>
<feComposite in2="hardAlpha" operator="out"/>
<feColorMatrix type="matrix" values="0 0 0 0 0.294118 0 0 0 0 0.145098 0 0 0 0 0.454902 0 0 0 0.21 0"/>
<feBlend mode="normal" in2="BackgroundImageFix" result="effect1_dropShadow_160_70"/>
<feBlend mode="normal" in="SourceGraphic" in2="effect1_dropShadow_160_70" result="shape"/>
</filter>
<linearGradient id="paint0_linear_160_70" x1="122.298" y1="254.486" x2="328.738" y2="54.4883" gradientUnits="userSpaceOnUse">
<stop stop-color="#F5F5F5"/>
<stop offset="0.5" stop-color="#E2A9FF"/>
<stop offset="1" stop-color="#F5F5F5"/>
</linearGradient>
<linearGradient id="paint1_linear_160_70" x1="267.919" y1="50.1" x2="504.246" y2="58.2667" gradientUnits="userSpaceOnUse">
<stop stop-color="white"/>
<stop offset="0.485813" stop-color="white"/>
<stop offset="1" stop-color="#CD96E5"/>
</linearGradient>
<linearGradient id="paint2_linear_160_70" x1="323.216" y1="188.971" x2="328.964" y2="290.4" gradientUnits="userSpaceOnUse">
<stop stop-color="#9470FF"/>
<stop offset="1" stop-color="#9D76FB"/>
</linearGradient>
<linearGradient id="paint3_linear_160_70" x1="289.844" y1="240.45" x2="289.844" y2="341.741" gradientUnits="userSpaceOnUse">
<stop stop-color="#9470FF"/>
<stop offset="1" stop-color="#E0A2FD"/>
</linearGradient>
<linearGradient id="paint4_linear_160_70" x1="313.257" y1="286.902" x2="313.257" y2="341.757" gradientUnits="userSpaceOnUse">
<stop stop-color="#9470FF"/>
<stop offset="1" stop-color="#E0A2FD"/>
</linearGradient>
<linearGradient id="paint5_linear_160_70" x1="255.933" y1="240.493" x2="255.933" y2="307.263" gradientUnits="userSpaceOnUse">
<stop stop-color="#9470FF"/>
<stop offset="1" stop-color="#E0A2FD"/>
</linearGradient>
<linearGradient id="paint6_linear_160_70" x1="263.731" y1="326.041" x2="263.731" y2="341.642" gradientUnits="userSpaceOnUse">
<stop stop-color="#9470FF"/>
<stop offset="1" stop-color="#E0A2FD"/>
</linearGradient>
<linearGradient id="paint7_linear_160_70" x1="594.709" y1="303.92" x2="622.17" y2="253.196" gradientUnits="userSpaceOnUse">
<stop stop-color="white"/>
<stop offset="0.485813" stop-color="white"/>
<stop offset="1" stop-color="#CD96E5"/>
</linearGradient>
<clipPath id="clip0_160_70">
<rect width="100" height="101.307" fill="white" transform="translate(241 240.449)"/>
</clipPath>
</defs>
</svg>
