<svg width="48" height="48" viewBox="0 0 48 48" fill="none" xmlns="http://www.w3.org/2000/svg">
<g filter="url(#filter0_d_160_210)">
<path fill-rule="evenodd" clip-rule="evenodd" d="M22.0084 4.08788C15.7475 4.73505 10.2155 8.2177 6.91704 13.5888C3.61432 18.9666 3.0775 25.8134 5.50415 31.6091C7.81068 37.118 12.3576 41.273 18.0646 43.0868C18.8204 43.327 20.2814 43.673 20.5445 43.6741L20.7206 43.6748L20.7007 35.9239L20.6807 28.1729L18.2793 28.1523L15.8779 28.1316V25.3604V22.5891H18.2988H20.7198V20.0222C20.7198 17.2007 20.7811 16.5907 21.1819 15.4256C21.9165 13.2897 23.6361 11.807 25.9722 11.2953C26.7702 11.1204 28.5488 11.0737 30.2864 11.182C31.1025 11.2327 31.8493 11.2937 31.9459 11.3174L32.1217 11.3604V13.8119V16.2634H30.6044C27.8011 16.2634 27.1066 16.5012 26.6002 17.6343C26.4809 17.9012 26.4588 18.2531 26.4355 20.2648L26.4085 22.5872L29.1693 22.6076L31.9301 22.6282L31.578 25.381L31.226 28.1339H28.8233H26.4207V35.9898V43.8457L26.8307 43.792C27.66 43.6836 29.0971 43.3493 30.0674 43.0391C34.0626 41.7619 37.4755 39.3386 40.0059 35.9824C45.3278 28.9239 45.3317 19.0886 40.0153 12.0153C37.2508 8.33719 33.2882 5.69679 28.8807 4.59589C26.7536 4.06453 24.1184 3.86976 22.0084 4.08788Z" fill="url(#paint0_linear_160_210)"/>
</g>
<defs>
<filter id="filter0_d_160_210" x="0" y="0" width="48" height="47.8457" filterUnits="userSpaceOnUse" color-interpolation-filters="sRGB">
<feFlood flood-opacity="0" result="BackgroundImageFix"/>
<feColorMatrix in="SourceAlpha" type="matrix" values="0 0 0 0 0 0 0 0 0 0 0 0 0 0 0 0 0 0 127 0" result="hardAlpha"/>
<feOffset/>
<feGaussianBlur stdDeviation="2"/>
<feComposite in2="hardAlpha" operator="out"/>
<feColorMatrix type="matrix" values="0 0 0 0 0.294118 0 0 0 0 0.145098 0 0 0 0 0.454902 0 0 0 0.21 0"/>
<feBlend mode="normal" in2="BackgroundImageFix" result="effect1_dropShadow_160_210"/>
<feBlend mode="normal" in="SourceGraphic" in2="effect1_dropShadow_160_210" result="shape"/>
</filter>
<linearGradient id="paint0_linear_160_210" x1="24" y1="4" x2="24" y2="43.8457" gradientUnits="userSpaceOnUse">
<stop stop-color="#CD96E5"/>
<stop offset="1" stop-color="#9D76FB"/>
</linearGradient>
</defs>
</svg>
